{
 "cells": [
  {
   "cell_type": "code",
   "execution_count": 2,
   "metadata": {},
   "outputs": [
    {
     "name": "stdout",
     "output_type": "stream",
     "text": [
      "[MetaMessage('smpte_offset', frame_rate=30, hours=0, minutes=0, seconds=0, frames=0, sub_frames=0, time=0), MetaMessage('time_signature', numerator=3, denominator=4, clocks_per_click=24, notated_32nd_notes_per_beat=8, time=0), MetaMessage('key_signature', key='Bb', time=0), MetaMessage('set_tempo', tempo=499999, time=0), MetaMessage('set_tempo', tempo=666669, time=0), MetaMessage('set_tempo', tempo=666669, time=0), MetaMessage('device_name', name='SmartMusic SoftSynth 1', time=0), MetaMessage('track_name', name='Piano', time=0), Message('program_change', channel=0, program=1, time=0), Message('control_change', channel=0, control=7, value=101, time=0), Message('control_change', channel=0, control=10, value=64, time=0), Message('control_change', channel=0, control=7, value=102, time=0), Message('control_change', channel=0, control=7, value=110, time=0), Message('control_change', channel=0, control=100, value=0, time=0.0019531318359375), Message('control_change', channel=0, control=101, value=0, time=0), Message('control_change', channel=0, control=100, value=0, time=0), Message('control_change', channel=0, control=101, value=0, time=0), Message('control_change', channel=0, control=6, value=12, time=0.0006510439453125), Message('control_change', channel=0, control=6, value=12, time=0), Message('control_change', channel=0, control=38, value=0, time=0.0006510439453125), Message('control_change', channel=0, control=38, value=0, time=0), Message('control_change', channel=0, control=7, value=102, time=0.0032552197265624996), Message('note_on', channel=0, note=46, velocity=50, time=0), Message('note_on', channel=0, note=53, velocity=50, time=0.347657466796875), Message('note_off', channel=0, note=46, velocity=0, time=0.039062636718749995), Message('note_on', channel=0, note=58, velocity=50, time=0.29036559960937497), Message('note_off', channel=0, note=53, velocity=0, time=0.039062636718749995), Message('note_on', channel=0, note=62, velocity=50, time=0.2923187314453125), Message('note_off', channel=0, note=58, velocity=0, time=0.039062636718749995), Message('note_on', channel=0, note=58, velocity=50, time=0.2910166435546875), Message('note_off', channel=0, note=62, velocity=0, time=0.039062636718749995), Message('note_on', channel=0, note=53, velocity=45, time=0.28711037988281246), Message('note_off', channel=0, note=58, velocity=0, time=0.039062636718749995), Message('note_off', channel=0, note=53, velocity=0, time=0.287761423828125), Message('note_on', channel=0, note=43, velocity=50, time=0.0045573076171875), Message('note_on', channel=0, note=50, velocity=50, time=0.35156373046875), Message('note_off', channel=0, note=43, velocity=0, time=0.039062636718749995), Message('note_on', channel=0, note=55, velocity=50, time=0.29036559960937497), Message('note_off', channel=0, note=50, velocity=0, time=0.039062636718749995), Message('note_on', channel=0, note=58, velocity=50, time=0.2923187314453125), Message('note_off', channel=0, note=55, velocity=0, time=0.039062636718749995), Message('note_on', channel=0, note=55, velocity=50, time=0.2910166435546875), Message('note_off', channel=0, note=58, velocity=0, time=0.039062636718749995), Message('note_on', channel=0, note=50, velocity=45, time=0.28711037988281246), Message('note_off', channel=0, note=55, velocity=0, time=0.039062636718749995), Message('note_off', channel=0, note=50, velocity=0, time=0.287761423828125), Message('note_on', channel=0, note=48, velocity=50, time=0.0045573076171875), Message('note_on', channel=0, note=55, velocity=50, time=0.35156373046875), Message('note_off', channel=0, note=48, velocity=0, time=0.039062636718749995), Message('note_on', channel=0, note=58, velocity=50, time=0.29036559960937497), Message('note_off', channel=0, note=55, velocity=0, time=0.039062636718749995), Message('note_on', channel=0, note=65, velocity=50, time=0.2923187314453125), Message('note_off', channel=0, note=58, velocity=0, time=0.039062636718749995), Message('note_on', channel=0, note=58, velocity=50, time=0.2910166435546875), Message('note_off', channel=0, note=65, velocity=0, time=0.039062636718749995), Message('note_on', channel=0, note=55, velocity=45, time=0.28711037988281246), Message('note_off', channel=0, note=58, velocity=0, time=0.039062636718749995), Message('note_off', channel=0, note=55, velocity=0, time=0.287761423828125), Message('note_on', channel=0, note=41, velocity=50, time=0.0045573076171875), Message('note_on', channel=0, note=53, velocity=50, time=0.35156373046875), Message('note_off', channel=0, note=41, velocity=0, time=0.039062636718749995), Message('note_on', channel=0, note=60, velocity=50, time=0.29036559960937497), Message('note_off', channel=0, note=53, velocity=0, time=0.039062636718749995), Message('note_on', channel=0, note=63, velocity=50, time=0.2923187314453125), Message('note_off', channel=0, note=60, velocity=0, time=0.039062636718749995), Message('control_change', channel=0, control=7, value=110, time=0.24869878710937499), Message('note_on', channel=0, note=65, velocity=62, time=0.042317856445312496), Message('note_on', channel=0, note=60, velocity=50, time=0), Message('note_off', channel=0, note=63, velocity=0, time=0.039062636718749995), Message('note_on', channel=0, note=57, velocity=45, time=0.28711037988281246), Message('note_off', channel=0, note=60, velocity=0, time=0.039062636718749995), Message('note_off', channel=0, note=57, velocity=0, time=0.287761423828125), MetaMessage('set_tempo', tempo=666669, time=0.0019531318359375), Message('note_on', channel=0, note=70, velocity=62, time=0.00260417578125), Message('note_on', channel=0, note=46, velocity=50, time=0), Message('note_off', channel=0, note=65, velocity=0, time=0.0227865380859375), Message('note_on', channel=0, note=53, velocity=50, time=0.3287771923828125), Message('note_off', channel=0, note=46, velocity=0, time=0.039062636718749995), Message('note_on', channel=0, note=58, velocity=50, time=0.29036559960937497), Message('note_off', channel=0, note=53, velocity=0, time=0.039062636718749995), Message('note_on', channel=0, note=62, velocity=50, time=0.2923187314453125), Message('note_off', channel=0, note=58, velocity=0, time=0.039062636718749995), Message('note_on', channel=0, note=65, velocity=62, time=0.2910166435546875), Message('note_on', channel=0, note=58, velocity=50, time=0), Message('note_off', channel=0, note=62, velocity=0, time=0.039062636718749995), Message('note_off', channel=0, note=70, velocity=0, time=0.013020878906249998), Message('note_on', channel=0, note=53, velocity=45, time=0.2740895009765625), Message('note_off', channel=0, note=58, velocity=0, time=0.039062636718749995), Message('note_off', channel=0, note=53, velocity=0, time=0.287761423828125), Message('note_on', channel=0, note=74, velocity=62, time=0.0045573076171875), Message('note_on', channel=0, note=43, velocity=50, time=0), Message('note_off', channel=0, note=65, velocity=0, time=0.0227865380859375), Message('note_on', channel=0, note=50, velocity=50, time=0.3287771923828125), Message('note_off', channel=0, note=43, velocity=0, time=0.039062636718749995), Message('note_on', channel=0, note=55, velocity=50, time=0.29036559960937497), Message('note_off', channel=0, note=50, velocity=0, time=0.039062636718749995), Message('note_on', channel=0, note=58, velocity=50, time=0.2923187314453125), Message('note_off', channel=0, note=55, velocity=0, time=0.039062636718749995), Message('note_on', channel=0, note=70, velocity=62, time=0.2910166435546875), Message('note_on', channel=0, note=55, velocity=50, time=0), Message('note_off', channel=0, note=58, velocity=0, time=0.039062636718749995), Message('note_off', channel=0, note=74, velocity=0, time=0.013020878906249998), Message('note_on', channel=0, note=50, velocity=45, time=0.2740895009765625), Message('note_off', channel=0, note=55, velocity=0, time=0.039062636718749995), Message('note_off', channel=0, note=50, velocity=0, time=0.287761423828125), Message('note_on', channel=0, note=77, velocity=62, time=0.0045573076171875), Message('note_on', channel=0, note=48, velocity=50, time=0), Message('note_off', channel=0, note=70, velocity=0, time=0.0227865380859375), Message('note_on', channel=0, note=55, velocity=50, time=0.3287771923828125), Message('note_off', channel=0, note=48, velocity=0, time=0.039062636718749995), Message('note_on', channel=0, note=58, velocity=50, time=0.29036559960937497), Message('note_off', channel=0, note=55, velocity=0, time=0.039062636718749995), Message('note_on', channel=0, note=65, velocity=50, time=0.2923187314453125), Message('note_off', channel=0, note=58, velocity=0, time=0.039062636718749995), Message('note_on', channel=0, note=58, velocity=50, time=0.2910166435546875), Message('note_off', channel=0, note=65, velocity=0, time=0.039062636718749995), Message('note_on', channel=0, note=55, velocity=45, time=0.28711037988281246), Message('note_off', channel=0, note=58, velocity=0, time=0.039062636718749995), Message('note_off', channel=0, note=55, velocity=0, time=0.287761423828125), Message('note_on', channel=0, note=41, velocity=50, time=0.0045573076171875), Message('note_on', channel=0, note=53, velocity=50, time=0.35156373046875), Message('note_off', channel=0, note=41, velocity=0, time=0.039062636718749995), Message('note_on', channel=0, note=60, velocity=50, time=0.29036559960937497), Message('note_off', channel=0, note=53, velocity=0, time=0.039062636718749995), Message('note_on', channel=0, note=63, velocity=50, time=0.2923187314453125), Message('note_off', channel=0, note=60, velocity=0, time=0.039062636718749995), Message('note_off', channel=0, note=77, velocity=0, time=0.2688811494140625), Message('note_on', channel=0, note=65, velocity=62, time=0.022135494140625), Message('note_on', channel=0, note=60, velocity=50, time=0), Message('note_off', channel=0, note=63, velocity=0, time=0.039062636718749995), Message('note_on', channel=0, note=57, velocity=45, time=0.28711037988281246), Message('note_off', channel=0, note=60, velocity=0, time=0.039062636718749995), Message('note_off', channel=0, note=57, velocity=0, time=0.287761423828125), Message('note_on', channel=0, note=70, velocity=62, time=0.0045573076171875), Message('note_on', channel=0, note=46, velocity=50, time=0), Message('note_off', channel=0, note=65, velocity=0, time=0.0227865380859375), Message('note_on', channel=0, note=53, velocity=50, time=0.3287771923828125), Message('note_off', channel=0, note=46, velocity=0, time=0.039062636718749995), Message('note_on', channel=0, note=58, velocity=50, time=0.29036559960937497), Message('note_off', channel=0, note=53, velocity=0, time=0.039062636718749995), Message('note_on', channel=0, note=62, velocity=50, time=0.2923187314453125), Message('note_off', channel=0, note=58, velocity=0, time=0.039062636718749995), Message('note_on', channel=0, note=65, velocity=62, time=0.2910166435546875), Message('note_on', channel=0, note=58, velocity=50, time=0), Message('note_off', channel=0, note=62, velocity=0, time=0.039062636718749995), Message('note_off', channel=0, note=70, velocity=0, time=0.013020878906249998), Message('note_on', channel=0, note=53, velocity=45, time=0.2740895009765625), Message('note_off', channel=0, note=58, velocity=0, time=0.039062636718749995), Message('note_off', channel=0, note=53, velocity=0, time=0.287761423828125), Message('note_on', channel=0, note=74, velocity=62, time=0.0045573076171875), Message('note_on', channel=0, note=43, velocity=50, time=0), Message('note_off', channel=0, note=65, velocity=0, time=0.0227865380859375), Message('note_on', channel=0, note=50, velocity=50, time=0.3287771923828125), Message('note_off', channel=0, note=43, velocity=0, time=0.039062636718749995), Message('note_on', channel=0, note=55, velocity=50, time=0.29036559960937497), Message('note_off', channel=0, note=50, velocity=0, time=0.039062636718749995), Message('note_on', channel=0, note=58, velocity=50, time=0.2923187314453125), Message('note_off', channel=0, note=55, velocity=0, time=0.039062636718749995), Message('note_on', channel=0, note=70, velocity=62, time=0.2910166435546875), Message('note_on', channel=0, note=55, velocity=50, time=0), Message('note_off', channel=0, note=58, velocity=0, time=0.039062636718749995), Message('note_off', channel=0, note=74, velocity=0, time=0.013020878906249998), Message('note_on', channel=0, note=50, velocity=45, time=0.2740895009765625), Message('note_off', channel=0, note=55, velocity=0, time=0.039062636718749995), Message('note_off', channel=0, note=50, velocity=0, time=0.287761423828125), Message('note_on', channel=0, note=77, velocity=62, time=0.0045573076171875), Message('note_on', channel=0, note=48, velocity=50, time=0), Message('note_off', channel=0, note=70, velocity=0, time=0.0227865380859375), Message('note_on', channel=0, note=55, velocity=50, time=0.3287771923828125), Message('note_off', channel=0, note=48, velocity=0, time=0.039062636718749995), Message('note_on', channel=0, note=58, velocity=50, time=0.29036559960937497), Message('note_off', channel=0, note=55, velocity=0, time=0.039062636718749995), Message('note_on', channel=0, note=65, velocity=50, time=0.2923187314453125), Message('note_off', channel=0, note=58, velocity=0, time=0.039062636718749995), Message('note_on', channel=0, note=58, velocity=50, time=0.2910166435546875), Message('note_off', channel=0, note=65, velocity=0, time=0.039062636718749995), Message('note_on', channel=0, note=55, velocity=45, time=0.28711037988281246), Message('note_off', channel=0, note=58, velocity=0, time=0.039062636718749995), Message('note_off', channel=0, note=55, velocity=0, time=0.287761423828125), Message('note_on', channel=0, note=41, velocity=50, time=0.0045573076171875), Message('note_on', channel=0, note=53, velocity=50, time=0.35156373046875), Message('note_off', channel=0, note=41, velocity=0, time=0.039062636718749995), Message('note_on', channel=0, note=60, velocity=50, time=0.29036559960937497), Message('note_off', channel=0, note=53, velocity=0, time=0.039062636718749995), Message('note_on', channel=0, note=63, velocity=50, time=0.2923187314453125), Message('note_off', channel=0, note=60, velocity=0, time=0.039062636718749995), Message('note_off', channel=0, note=77, velocity=0, time=0.29036559960937497), Message('note_on', channel=0, note=77, velocity=62, time=0.0006510439453125), Message('note_on', channel=0, note=60, velocity=50, time=0), Message('note_off', channel=0, note=63, velocity=0, time=0.039062636718749995), Message('note_on', channel=0, note=57, velocity=45, time=0.28711037988281246), Message('note_off', channel=0, note=60, velocity=0, time=0.039062636718749995), Message('note_off', channel=0, note=57, velocity=0, time=0.287761423828125), Message('note_on', channel=0, note=79, velocity=62, time=0.0045573076171875), Message('note_on', channel=0, note=39, velocity=49, time=0), Message('note_off', channel=0, note=77, velocity=0, time=0.0227865380859375), Message('note_on', channel=0, note=46, velocity=50, time=0.3287771923828125), Message('note_off', channel=0, note=39, velocity=0, time=0.039062636718749995), Message('note_on', channel=0, note=58, velocity=50, time=0.29036559960937497), Message('note_off', channel=0, note=46, velocity=0, time=0.039062636718749995), Message('note_on', channel=0, note=55, velocity=50, time=0.2923187314453125), Message('note_off', channel=0, note=58, velocity=0, time=0.039062636718749995), Message('note_on', channel=0, note=58, velocity=50, time=0.2910166435546875), Message('note_off', channel=0, note=55, velocity=0, time=0.039062636718749995), Message('note_on', channel=0, note=55, velocity=45, time=0.28711037988281246), Message('note_off', channel=0, note=58, velocity=0, time=0.039062636718749995), Message('note_off', channel=0, note=55, velocity=0, time=0.287761423828125), Message('note_on', channel=0, note=69, velocity=62, time=0.0045573076171875), Message('note_on', channel=0, note=41, velocity=50, time=0), Message('note_off', channel=0, note=79, velocity=0, time=0.07617214160156249), Message('note_on', channel=0, note=48, velocity=50, time=0.2753915888671875), Message('note_off', channel=0, note=41, velocity=0, time=0.039062636718749995), Message('note_on', channel=0, note=57, velocity=50, time=0.29036559960937497), Message('note_off', channel=0, note=48, velocity=0, time=0.039062636718749995), MetaMessage('set_tempo', tempo=666669, time=0.277344720703125), Message('note_on', channel=0, note=53, velocity=50, time=0.014974010742187498), Message('note_off', channel=0, note=57, velocity=0, time=0.039062636718749995), MetaMessage('set_tempo', tempo=670599, time=0.0644533505859375), MetaMessage('set_tempo', tempo=674576, time=0.11918849414062499), Message('note_on', channel=0, note=79, velocity=62, time=0.10935509375), Message('note_on', channel=0, note=57, velocity=50, time=0), MetaMessage('set_tempo', tempo=678148, time=0.01054025), Message('note_off', channel=0, note=53, velocity=0, time=0.029139171874999998), Message('note_off', channel=0, note=69, velocity=0, time=0.013245078125), MetaMessage('set_tempo', tempo=682216, time=0.0781459609375), MetaMessage('set_tempo', tempo=685869, time=0.12125323437499999), Message('note_on', channel=0, note=53, velocity=45, time=0.08104506738281249), Message('note_off', channel=0, note=57, velocity=0, time=0.040187636718749996), MetaMessage('set_tempo', tempo=690030, time=0.0006697939453125), MetaMessage('set_tempo', tempo=693768, time=0.12264205078124998), Message('note_off', channel=0, note=53, velocity=0, time=0.17615203124999998), Message('note_on', channel=0, note=77, velocity=62, time=0.004065046875), Message('note_on', channel=0, note=46, velocity=50, time=0), Message('note_off', channel=0, note=79, velocity=0, time=0.023712773437499998), MetaMessage('set_tempo', tempo=666669, time=0.1470191953125), Message('note_on', channel=0, note=53, velocity=50, time=0.18750065624999998), Message('note_off', channel=0, note=46, velocity=0, time=0.039062636718749995), Message('note_on', channel=0, note=58, velocity=50, time=0.29036559960937497), Message('note_off', channel=0, note=53, velocity=0, time=0.039062636718749995), Message('note_on', channel=0, note=53, velocity=50, time=0.2923187314453125), Message('note_off', channel=0, note=58, velocity=0, time=0.039062636718749995), Message('note_on', channel=0, note=58, velocity=50, time=0.2910166435546875), Message('note_off', channel=0, note=53, velocity=0, time=0.039062636718749995), Message('note_on', channel=0, note=53, velocity=45, time=0.28711037988281246), Message('note_off', channel=0, note=58, velocity=0, time=0.039062636718749995), Message('note_off', channel=0, note=53, velocity=0, time=0.287761423828125), Message('note_on', channel=0, note=74, velocity=57, time=0.0045573076171875), Message('note_on', channel=0, note=43, velocity=50, time=0), Message('note_off', channel=0, note=77, velocity=0, time=0.07617214160156249), Message('note_on', channel=0, note=50, velocity=50, time=0.2753915888671875), Message('note_off', channel=0, note=43, velocity=0, time=0.039062636718749995), Message('note_on', channel=0, note=58, velocity=50, time=0.29036559960937497), Message('note_off', channel=0, note=50, velocity=0, time=0.039062636718749995), Message('note_on', channel=0, note=50, velocity=50, time=0.2923187314453125), Message('note_off', channel=0, note=58, velocity=0, time=0.039062636718749995), Message('note_on', channel=0, note=58, velocity=50, time=0.2910166435546875), Message('note_off', channel=0, note=50, velocity=0, time=0.039062636718749995), Message('note_on', channel=0, note=50, velocity=45, time=0.28711037988281246), Message('note_off', channel=0, note=58, velocity=0, time=0.039062636718749995), Message('note_off', channel=0, note=50, velocity=0, time=0.287761423828125), Message('note_off', channel=0, note=74, velocity=0, time=0.001302087890625), Message('note_on', channel=0, note=74, velocity=62, time=0.0032552197265624996), Message('note_on', channel=0, note=48, velocity=50, time=0), Message('note_on', channel=0, note=55, velocity=50, time=0.35156373046875), Message('note_off', channel=0, note=48, velocity=0, time=0.039062636718749995), Message('note_on', channel=0, note=58, velocity=50, time=0.29036559960937497), Message('note_off', channel=0, note=55, velocity=0, time=0.039062636718749995), Message('note_on', channel=0, note=55, velocity=50, time=0.2923187314453125), Message('note_off', channel=0, note=58, velocity=0, time=0.039062636718749995), Message('note_on', channel=0, note=58, velocity=50, time=0.2910166435546875), Message('note_off', channel=0, note=55, velocity=0, time=0.039062636718749995), Message('note_on', channel=0, note=55, velocity=45, time=0.28711037988281246), Message('note_off', channel=0, note=58, velocity=0, time=0.039062636718749995), Message('note_off', channel=0, note=55, velocity=0, time=0.287761423828125), Message('note_off', channel=0, note=74, velocity=0, time=0.001302087890625), Message('note_on', channel=0, note=74, velocity=62, time=0.0032552197265624996), Message('note_on', channel=0, note=41, velocity=50, time=0), Message('note_on', channel=0, note=48, velocity=50, time=0.35156373046875), Message('note_off', channel=0, note=41, velocity=0, time=0.039062636718749995), Message('note_on', channel=0, note=57, velocity=50, time=0.29036559960937497), Message('note_off', channel=0, note=48, velocity=0, time=0.039062636718749995), Message('note_on', channel=0, note=48, velocity=50, time=0.2923187314453125), Message('note_off', channel=0, note=57, velocity=0, time=0.039062636718749995), Message('note_on', channel=0, note=72, velocity=62, time=0.2910166435546875), Message('note_on', channel=0, note=57, velocity=50, time=0), Message('note_off', channel=0, note=48, velocity=0, time=0.039062636718749995), Message('note_off', channel=0, note=74, velocity=0, time=0.013020878906249998), Message('note_on', channel=0, note=48, velocity=45, time=0.2740895009765625), Message('note_off', channel=0, note=57, velocity=0, time=0.039062636718749995), Message('note_off', channel=0, note=48, velocity=0, time=0.287761423828125), Message('note_on', channel=0, note=70, velocity=62, time=0.0045573076171875), Message('note_on', channel=0, note=46, velocity=50, time=0), Message('note_off', channel=0, note=72, velocity=0, time=0.0227865380859375), Message('note_on', channel=0, note=53, velocity=50, time=0.3287771923828125), Message('note_off', channel=0, note=46, velocity=0, time=0.039062636718749995), Message('note_on', channel=0, note=58, velocity=50, time=0.29036559960937497), Message('note_off', channel=0, note=53, velocity=0, time=0.039062636718749995), MetaMessage('set_tempo', tempo=666669, time=0.277344720703125), Message('note_on', channel=0, note=53, velocity=50, time=0.014974010742187498), Message('note_off', channel=0, note=58, velocity=0, time=0.039062636718749995), MetaMessage('set_tempo', tempo=670599, time=0.0644533505859375), MetaMessage('set_tempo', tempo=670599, time=0.11918849414062499), Message('note_on', channel=0, note=58, velocity=50, time=0.10871038476562499), MetaMessage('set_tempo', tempo=674576, time=0.010478109375), Message('note_off', channel=0, note=53, velocity=0, time=0.0289856875), MetaMessage('set_tempo', tempo=674576, time=0.09090965625), MetaMessage('set_tempo', tempo=678148, time=0.11989534375), Message('note_on', channel=0, note=53, velocity=45, time=0.08013272265625), Message('note_off', channel=0, note=58, velocity=0, time=0.039735234375), MetaMessage('set_tempo', tempo=678148, time=0.00066225390625), MetaMessage('set_tempo', tempo=682216, time=0.12053021093749999), Message('note_off', channel=0, note=53, velocity=0, time=0.1725526796875), MetaMessage('set_tempo', tempo=666669, time=0.0019986796875), Message('note_on', channel=0, note=46, velocity=50, time=0.00260417578125), Message('note_on', channel=0, note=53, velocity=50, time=0.35156373046875), Message('note_off', channel=0, note=46, velocity=0, time=0.039062636718749995), Message('note_on', channel=0, note=58, velocity=50, time=0.29036559960937497), Message('note_off', channel=0, note=53, velocity=0, time=0.039062636718749995), MetaMessage('set_tempo', tempo=666669, time=0.277344720703125), Message('note_on', channel=0, note=53, velocity=50, time=0.014974010742187498), Message('note_off', channel=0, note=58, velocity=0, time=0.039062636718749995), MetaMessage('set_tempo', tempo=670599, time=0.0644533505859375), MetaMessage('set_tempo', tempo=674576, time=0.11918849414062499), Message('note_off', channel=0, note=70, velocity=0, time=0.08695706249999999), Message('note_on', channel=0, note=65, velocity=62, time=0.02239803125), Message('note_on', channel=0, note=58, velocity=50, time=0), MetaMessage('set_tempo', tempo=678148, time=0.01054025), Message('note_off', channel=0, note=53, velocity=0, time=0.029139171874999998), MetaMessage('set_tempo', tempo=682216, time=0.0913910390625), MetaMessage('set_tempo', tempo=685869, time=0.12125323437499999), Message('note_on', channel=0, note=53, velocity=45, time=0.08104506738281249), Message('note_off', channel=0, note=58, velocity=0, time=0.040187636718749996), MetaMessage('set_tempo', tempo=690030, time=0.0006697939453125), MetaMessage('set_tempo', tempo=693768, time=0.12264205078124998), Message('note_off', channel=0, note=53, velocity=0, time=0.17615203124999998), Message('note_on', channel=0, note=70, velocity=62, time=0.004065046875), Message('note_on', channel=0, note=46, velocity=50, time=0), Message('note_off', channel=0, note=65, velocity=0, time=0.023712773437499998), MetaMessage('set_tempo', tempo=666669, time=0.1470191953125), Message('note_on', channel=0, note=53, velocity=50, time=0.18750065624999998), Message('note_off', channel=0, note=46, velocity=0, time=0.039062636718749995), Message('note_on', channel=0, note=58, velocity=50, time=0.29036559960937497), Message('note_off', channel=0, note=53, velocity=0, time=0.039062636718749995), Message('note_on', channel=0, note=62, velocity=50, time=0.2923187314453125), Message('note_off', channel=0, note=58, velocity=0, time=0.039062636718749995), Message('note_on', channel=0, note=65, velocity=62, time=0.2910166435546875), Message('note_on', channel=0, note=58, velocity=50, time=0), Message('note_off', channel=0, note=62, velocity=0, time=0.039062636718749995), Message('note_off', channel=0, note=70, velocity=0, time=0.013020878906249998), Message('note_on', channel=0, note=53, velocity=45, time=0.2740895009765625), Message('note_off', channel=0, note=58, velocity=0, time=0.039062636718749995), Message('note_off', channel=0, note=53, velocity=0, time=0.287761423828125), Message('note_on', channel=0, note=74, velocity=62, time=0.0045573076171875), Message('note_on', channel=0, note=43, velocity=50, time=0), Message('note_off', channel=0, note=65, velocity=0, time=0.0227865380859375), Message('note_on', channel=0, note=50, velocity=50, time=0.3287771923828125), Message('note_off', channel=0, note=43, velocity=0, time=0.039062636718749995), Message('note_on', channel=0, note=55, velocity=50, time=0.29036559960937497), Message('note_off', channel=0, note=50, velocity=0, time=0.039062636718749995), Message('note_on', channel=0, note=58, velocity=50, time=0.2923187314453125), Message('note_off', channel=0, note=55, velocity=0, time=0.039062636718749995), Message('note_on', channel=0, note=70, velocity=62, time=0.2910166435546875), Message('note_on', channel=0, note=55, velocity=50, time=0), Message('note_off', channel=0, note=58, velocity=0, time=0.039062636718749995), Message('note_off', channel=0, note=74, velocity=0, time=0.013020878906249998), Message('note_on', channel=0, note=50, velocity=45, time=0.2740895009765625), Message('note_off', channel=0, note=55, velocity=0, time=0.039062636718749995), Message('note_off', channel=0, note=50, velocity=0, time=0.287761423828125), Message('note_on', channel=0, note=77, velocity=62, time=0.0045573076171875), Message('note_on', channel=0, note=48, velocity=50, time=0), Message('note_off', channel=0, note=70, velocity=0, time=0.0227865380859375), Message('note_on', channel=0, note=55, velocity=50, time=0.3287771923828125), Message('note_off', channel=0, note=48, velocity=0, time=0.039062636718749995), Message('note_on', channel=0, note=58, velocity=50, time=0.29036559960937497), Message('note_off', channel=0, note=55, velocity=0, time=0.039062636718749995), Message('note_on', channel=0, note=65, velocity=50, time=0.2923187314453125), Message('note_off', channel=0, note=58, velocity=0, time=0.039062636718749995), Message('note_on', channel=0, note=58, velocity=50, time=0.2910166435546875), Message('note_off', channel=0, note=65, velocity=0, time=0.039062636718749995), Message('note_on', channel=0, note=55, velocity=45, time=0.28711037988281246), Message('note_off', channel=0, note=58, velocity=0, time=0.039062636718749995), Message('note_off', channel=0, note=55, velocity=0, time=0.287761423828125), Message('note_on', channel=0, note=41, velocity=50, time=0.0045573076171875), Message('note_on', channel=0, note=53, velocity=50, time=0.35156373046875), Message('note_off', channel=0, note=41, velocity=0, time=0.039062636718749995), Message('note_on', channel=0, note=60, velocity=50, time=0.29036559960937497), Message('note_off', channel=0, note=53, velocity=0, time=0.039062636718749995), Message('note_on', channel=0, note=63, velocity=50, time=0.2923187314453125), Message('note_off', channel=0, note=60, velocity=0, time=0.039062636718749995), Message('note_off', channel=0, note=77, velocity=0, time=0.2688811494140625), Message('note_on', channel=0, note=65, velocity=62, time=0.022135494140625), Message('note_on', channel=0, note=60, velocity=50, time=0), Message('note_off', channel=0, note=63, velocity=0, time=0.039062636718749995), Message('note_on', channel=0, note=57, velocity=45, time=0.28711037988281246), Message('note_off', channel=0, note=60, velocity=0, time=0.039062636718749995), Message('note_off', channel=0, note=57, velocity=0, time=0.287761423828125), Message('note_on', channel=0, note=70, velocity=62, time=0.0045573076171875), Message('note_on', channel=0, note=46, velocity=50, time=0), Message('note_off', channel=0, note=65, velocity=0, time=0.0227865380859375), Message('note_on', channel=0, note=53, velocity=50, time=0.3287771923828125), Message('note_off', channel=0, note=46, velocity=0, time=0.039062636718749995), Message('note_on', channel=0, note=58, velocity=50, time=0.29036559960937497), Message('note_off', channel=0, note=53, velocity=0, time=0.039062636718749995), Message('note_on', channel=0, note=62, velocity=50, time=0.2923187314453125), Message('note_off', channel=0, note=58, velocity=0, time=0.039062636718749995), Message('note_on', channel=0, note=65, velocity=62, time=0.2910166435546875), Message('note_on', channel=0, note=58, velocity=50, time=0), Message('note_off', channel=0, note=62, velocity=0, time=0.039062636718749995), Message('note_off', channel=0, note=70, velocity=0, time=0.013020878906249998), Message('note_on', channel=0, note=53, velocity=45, time=0.2740895009765625), Message('note_off', channel=0, note=58, velocity=0, time=0.039062636718749995), Message('note_off', channel=0, note=53, velocity=0, time=0.287761423828125), Message('note_on', channel=0, note=74, velocity=62, time=0.0045573076171875), Message('note_on', channel=0, note=43, velocity=50, time=0), Message('note_off', channel=0, note=65, velocity=0, time=0.0227865380859375), Message('note_on', channel=0, note=50, velocity=50, time=0.3287771923828125), Message('note_off', channel=0, note=43, velocity=0, time=0.039062636718749995), Message('note_on', channel=0, note=55, velocity=50, time=0.29036559960937497), Message('note_off', channel=0, note=50, velocity=0, time=0.039062636718749995), Message('note_on', channel=0, note=58, velocity=50, time=0.2923187314453125), Message('note_off', channel=0, note=55, velocity=0, time=0.039062636718749995), Message('note_on', channel=0, note=70, velocity=62, time=0.2910166435546875), Message('note_on', channel=0, note=55, velocity=50, time=0), Message('note_off', channel=0, note=58, velocity=0, time=0.039062636718749995), Message('note_off', channel=0, note=74, velocity=0, time=0.013020878906249998), Message('note_on', channel=0, note=50, velocity=45, time=0.2740895009765625), Message('note_off', channel=0, note=55, velocity=0, time=0.039062636718749995), Message('note_off', channel=0, note=50, velocity=0, time=0.287761423828125), Message('note_on', channel=0, note=77, velocity=62, time=0.0045573076171875), Message('note_on', channel=0, note=48, velocity=50, time=0), Message('note_off', channel=0, note=70, velocity=0, time=0.0227865380859375), Message('note_on', channel=0, note=55, velocity=50, time=0.3287771923828125), Message('note_off', channel=0, note=48, velocity=0, time=0.039062636718749995), Message('note_on', channel=0, note=58, velocity=50, time=0.29036559960937497), Message('note_off', channel=0, note=55, velocity=0, time=0.039062636718749995), Message('note_on', channel=0, note=65, velocity=50, time=0.2923187314453125), Message('note_off', channel=0, note=58, velocity=0, time=0.039062636718749995), Message('note_on', channel=0, note=58, velocity=50, time=0.2910166435546875), Message('note_off', channel=0, note=65, velocity=0, time=0.039062636718749995), Message('note_on', channel=0, note=55, velocity=45, time=0.28711037988281246), Message('note_off', channel=0, note=58, velocity=0, time=0.039062636718749995), Message('note_off', channel=0, note=55, velocity=0, time=0.287761423828125), Message('note_on', channel=0, note=41, velocity=50, time=0.0045573076171875), Message('note_on', channel=0, note=53, velocity=50, time=0.35156373046875), Message('note_off', channel=0, note=41, velocity=0, time=0.039062636718749995), Message('note_on', channel=0, note=60, velocity=50, time=0.29036559960937497), Message('note_off', channel=0, note=53, velocity=0, time=0.039062636718749995), Message('note_on', channel=0, note=63, velocity=50, time=0.2923187314453125), Message('note_off', channel=0, note=60, velocity=0, time=0.039062636718749995), Message('note_off', channel=0, note=77, velocity=0, time=0.29036559960937497), Message('note_on', channel=0, note=77, velocity=62, time=0.0006510439453125), Message('note_on', channel=0, note=60, velocity=50, time=0), Message('note_off', channel=0, note=63, velocity=0, time=0.039062636718749995), Message('note_on', channel=0, note=57, velocity=45, time=0.28711037988281246), Message('note_off', channel=0, note=60, velocity=0, time=0.039062636718749995), Message('note_off', channel=0, note=57, velocity=0, time=0.287761423828125), Message('note_on', channel=0, note=79, velocity=62, time=0.0045573076171875), Message('note_on', channel=0, note=39, velocity=49, time=0), Message('note_off', channel=0, note=77, velocity=0, time=0.0227865380859375), Message('note_on', channel=0, note=46, velocity=50, time=0.3287771923828125), Message('note_off', channel=0, note=39, velocity=0, time=0.039062636718749995), Message('note_on', channel=0, note=58, velocity=50, time=0.29036559960937497), Message('note_off', channel=0, note=46, velocity=0, time=0.039062636718749995), Message('note_on', channel=0, note=55, velocity=50, time=0.2923187314453125), Message('note_off', channel=0, note=58, velocity=0, time=0.039062636718749995), Message('note_on', channel=0, note=58, velocity=50, time=0.2910166435546875), Message('note_off', channel=0, note=55, velocity=0, time=0.039062636718749995), Message('note_on', channel=0, note=55, velocity=45, time=0.28711037988281246), Message('note_off', channel=0, note=58, velocity=0, time=0.039062636718749995), Message('note_off', channel=0, note=55, velocity=0, time=0.287761423828125), Message('note_on', channel=0, note=69, velocity=62, time=0.0045573076171875), Message('note_on', channel=0, note=41, velocity=50, time=0), Message('note_off', channel=0, note=79, velocity=0, time=0.07617214160156249), Message('note_on', channel=0, note=48, velocity=50, time=0.2753915888671875), Message('note_off', channel=0, note=41, velocity=0, time=0.039062636718749995), Message('note_on', channel=0, note=57, velocity=50, time=0.29036559960937497), Message('note_off', channel=0, note=48, velocity=0, time=0.039062636718749995), MetaMessage('set_tempo', tempo=666669, time=0.277344720703125), Message('note_on', channel=0, note=53, velocity=50, time=0.014974010742187498), Message('note_off', channel=0, note=57, velocity=0, time=0.039062636718749995), MetaMessage('set_tempo', tempo=670599, time=0.0644533505859375), MetaMessage('set_tempo', tempo=674576, time=0.11918849414062499), Message('note_on', channel=0, note=79, velocity=62, time=0.10935509375), Message('note_on', channel=0, note=57, velocity=50, time=0), MetaMessage('set_tempo', tempo=678148, time=0.01054025), Message('note_off', channel=0, note=53, velocity=0, time=0.029139171874999998), Message('note_off', channel=0, note=69, velocity=0, time=0.013245078125), MetaMessage('set_tempo', tempo=682216, time=0.0781459609375), MetaMessage('set_tempo', tempo=685869, time=0.12125323437499999), Message('note_on', channel=0, note=53, velocity=45, time=0.08104506738281249), Message('note_off', channel=0, note=57, velocity=0, time=0.040187636718749996), MetaMessage('set_tempo', tempo=690030, time=0.0006697939453125), MetaMessage('set_tempo', tempo=693768, time=0.12264205078124998), Message('note_off', channel=0, note=53, velocity=0, time=0.17615203124999998), Message('note_on', channel=0, note=77, velocity=62, time=0.004065046875), Message('note_on', channel=0, note=46, velocity=50, time=0), Message('note_off', channel=0, note=79, velocity=0, time=0.023712773437499998), MetaMessage('set_tempo', tempo=666669, time=0.1470191953125), Message('note_on', channel=0, note=53, velocity=50, time=0.18750065624999998), Message('note_off', channel=0, note=46, velocity=0, time=0.039062636718749995), Message('note_on', channel=0, note=58, velocity=50, time=0.29036559960937497), Message('note_off', channel=0, note=53, velocity=0, time=0.039062636718749995), Message('note_on', channel=0, note=53, velocity=50, time=0.2923187314453125), Message('note_off', channel=0, note=58, velocity=0, time=0.039062636718749995), Message('note_on', channel=0, note=58, velocity=50, time=0.2910166435546875), Message('note_off', channel=0, note=53, velocity=0, time=0.039062636718749995), Message('note_on', channel=0, note=53, velocity=45, time=0.28711037988281246), Message('note_off', channel=0, note=58, velocity=0, time=0.039062636718749995), Message('note_off', channel=0, note=53, velocity=0, time=0.287761423828125), Message('note_on', channel=0, note=74, velocity=57, time=0.0045573076171875), Message('note_on', channel=0, note=43, velocity=50, time=0), Message('note_off', channel=0, note=77, velocity=0, time=0.07617214160156249), Message('note_on', channel=0, note=50, velocity=50, time=0.2753915888671875), Message('note_off', channel=0, note=43, velocity=0, time=0.039062636718749995), Message('note_on', channel=0, note=58, velocity=50, time=0.29036559960937497), Message('note_off', channel=0, note=50, velocity=0, time=0.039062636718749995), Message('note_on', channel=0, note=50, velocity=50, time=0.2923187314453125), Message('note_off', channel=0, note=58, velocity=0, time=0.039062636718749995), Message('note_on', channel=0, note=58, velocity=50, time=0.2910166435546875), Message('note_off', channel=0, note=50, velocity=0, time=0.039062636718749995), Message('note_on', channel=0, note=50, velocity=45, time=0.28711037988281246), Message('note_off', channel=0, note=58, velocity=0, time=0.039062636718749995), Message('note_off', channel=0, note=50, velocity=0, time=0.287761423828125), Message('note_off', channel=0, note=74, velocity=0, time=0.001302087890625), Message('note_on', channel=0, note=74, velocity=62, time=0.0032552197265624996), Message('note_on', channel=0, note=48, velocity=50, time=0), Message('note_on', channel=0, note=55, velocity=50, time=0.35156373046875), Message('note_off', channel=0, note=48, velocity=0, time=0.039062636718749995), Message('note_on', channel=0, note=58, velocity=50, time=0.29036559960937497), Message('note_off', channel=0, note=55, velocity=0, time=0.039062636718749995), Message('note_on', channel=0, note=55, velocity=50, time=0.2923187314453125), Message('note_off', channel=0, note=58, velocity=0, time=0.039062636718749995), Message('note_on', channel=0, note=58, velocity=50, time=0.2910166435546875), Message('note_off', channel=0, note=55, velocity=0, time=0.039062636718749995), Message('note_on', channel=0, note=55, velocity=45, time=0.28711037988281246), Message('note_off', channel=0, note=58, velocity=0, time=0.039062636718749995), Message('note_off', channel=0, note=55, velocity=0, time=0.287761423828125), Message('note_off', channel=0, note=74, velocity=0, time=0.001302087890625), Message('note_on', channel=0, note=74, velocity=62, time=0.0032552197265624996), Message('note_on', channel=0, note=41, velocity=50, time=0), Message('note_on', channel=0, note=48, velocity=50, time=0.35156373046875), Message('note_off', channel=0, note=41, velocity=0, time=0.039062636718749995), Message('note_on', channel=0, note=57, velocity=50, time=0.29036559960937497), Message('note_off', channel=0, note=48, velocity=0, time=0.039062636718749995), Message('note_on', channel=0, note=48, velocity=50, time=0.2923187314453125), Message('note_off', channel=0, note=57, velocity=0, time=0.039062636718749995), Message('note_on', channel=0, note=72, velocity=62, time=0.2910166435546875), Message('note_on', channel=0, note=57, velocity=50, time=0), Message('note_off', channel=0, note=48, velocity=0, time=0.039062636718749995), Message('note_off', channel=0, note=74, velocity=0, time=0.013020878906249998), Message('note_on', channel=0, note=48, velocity=45, time=0.2740895009765625), Message('note_off', channel=0, note=57, velocity=0, time=0.039062636718749995), Message('note_off', channel=0, note=48, velocity=0, time=0.287761423828125), Message('note_on', channel=0, note=70, velocity=62, time=0.0045573076171875), Message('note_on', channel=0, note=46, velocity=50, time=0), Message('note_off', channel=0, note=72, velocity=0, time=0.0227865380859375), Message('note_on', channel=0, note=53, velocity=50, time=0.3287771923828125), Message('note_off', channel=0, note=46, velocity=0, time=0.039062636718749995), Message('note_on', channel=0, note=58, velocity=50, time=0.29036559960937497), Message('note_off', channel=0, note=53, velocity=0, time=0.039062636718749995), MetaMessage('set_tempo', tempo=666669, time=0.277344720703125), Message('note_on', channel=0, note=53, velocity=50, time=0.014974010742187498), Message('note_off', channel=0, note=58, velocity=0, time=0.039062636718749995), MetaMessage('set_tempo', tempo=670599, time=0.0644533505859375), MetaMessage('set_tempo', tempo=674576, time=0.11918849414062499), Message('note_on', channel=0, note=58, velocity=50, time=0.10935509375), MetaMessage('set_tempo', tempo=678148, time=0.01054025), Message('note_off', channel=0, note=53, velocity=0, time=0.029139171874999998), MetaMessage('set_tempo', tempo=682216, time=0.0913910390625), MetaMessage('set_tempo', tempo=685869, time=0.12125323437499999), Message('note_on', channel=0, note=53, velocity=45, time=0.08104506738281249), Message('note_off', channel=0, note=58, velocity=0, time=0.040187636718749996), MetaMessage('set_tempo', tempo=690030, time=0.0006697939453125), MetaMessage('set_tempo', tempo=693768, time=0.12264205078124998), Message('note_off', channel=0, note=53, velocity=0, time=0.17615203124999998), Message('note_on', channel=0, note=46, velocity=50, time=0.004065046875), MetaMessage('set_tempo', tempo=666669, time=0.17073196875), Message('note_on', channel=0, note=53, velocity=50, time=0.18750065624999998), Message('note_off', channel=0, note=46, velocity=0, time=0.039062636718749995), Message('note_on', channel=0, note=58, velocity=50, time=0.29036559960937497), Message('note_off', channel=0, note=53, velocity=0, time=0.039062636718749995), Message('note_on', channel=0, note=53, velocity=50, time=0.2923187314453125), Message('note_off', channel=0, note=58, velocity=0, time=0.039062636718749995), Message('note_off', channel=0, note=70, velocity=0, time=0.29036559960937497), Message('note_on', channel=0, note=70, velocity=62, time=0.0006510439453125), Message('note_on', channel=0, note=58, velocity=50, time=0), Message('note_off', channel=0, note=53, velocity=0, time=0.039062636718749995), Message('note_on', channel=0, note=53, velocity=45, time=0.28711037988281246), Message('note_off', channel=0, note=58, velocity=0, time=0.039062636718749995), Message('note_off', channel=0, note=53, velocity=0, time=0.287761423828125), Message('note_off', channel=0, note=70, velocity=0, time=0.001302087890625), Message('note_on', channel=0, note=70, velocity=62, time=0.0032552197265624996), Message('note_on', channel=0, note=39, velocity=49, time=0), Message('note_on', channel=0, note=46, velocity=50, time=0.35156373046875), Message('note_off', channel=0, note=39, velocity=0, time=0.039062636718749995), Message('note_on', channel=0, note=58, velocity=50, time=0.29036559960937497), Message('note_off', channel=0, note=46, velocity=0, time=0.039062636718749995), Message('note_on', channel=0, note=55, velocity=50, time=0.2923187314453125), Message('note_off', channel=0, note=58, velocity=0, time=0.039062636718749995), Message('note_on', channel=0, note=58, velocity=50, time=0.2910166435546875), Message('note_off', channel=0, note=55, velocity=0, time=0.039062636718749995), Message('note_on', channel=0, note=55, velocity=45, time=0.28711037988281246), Message('note_off', channel=0, note=58, velocity=0, time=0.039062636718749995), Message('note_off', channel=0, note=55, velocity=0, time=0.287761423828125), Message('note_on', channel=0, note=69, velocity=62, time=0.0045573076171875), Message('note_on', channel=0, note=39, velocity=49, time=0), Message('note_off', channel=0, note=70, velocity=0, time=0.07617214160156249), Message('note_on', channel=0, note=46, velocity=50, time=0.2753915888671875), Message('note_off', channel=0, note=39, velocity=0, time=0.039062636718749995), Message('note_on', channel=0, note=58, velocity=50, time=0.29036559960937497), Message('note_off', channel=0, note=46, velocity=0, time=0.039062636718749995), Message('note_on', channel=0, note=55, velocity=50, time=0.2923187314453125), Message('note_off', channel=0, note=58, velocity=0, time=0.039062636718749995), Message('note_on', channel=0, note=72, velocity=62, time=0.2910166435546875), Message('note_on', channel=0, note=58, velocity=50, time=0), Message('note_off', channel=0, note=55, velocity=0, time=0.039062636718749995), Message('note_off', channel=0, note=69, velocity=0, time=0.013020878906249998), Message('note_on', channel=0, note=55, velocity=45, time=0.2740895009765625), Message('note_off', channel=0, note=58, velocity=0, time=0.039062636718749995), Message('note_off', channel=0, note=55, velocity=0, time=0.287761423828125), Message('note_on', channel=0, note=70, velocity=62, time=0.0045573076171875), Message('note_on', channel=0, note=38, velocity=49, time=0), Message('note_off', channel=0, note=72, velocity=0, time=0.0227865380859375), Message('note_on', channel=0, note=53, velocity=50, time=0.3287771923828125), Message('note_off', channel=0, note=38, velocity=0, time=0.039062636718749995), Message('note_on', channel=0, note=58, velocity=50, time=0.29036559960937497), Message('note_off', channel=0, note=53, velocity=0, time=0.039062636718749995), Message('note_on', channel=0, note=53, velocity=50, time=0.2923187314453125), Message('note_off', channel=0, note=58, velocity=0, time=0.039062636718749995), Message('note_on', channel=0, note=58, velocity=50, time=0.2910166435546875), Message('note_off', channel=0, note=53, velocity=0, time=0.039062636718749995), Message('note_on', channel=0, note=53, velocity=45, time=0.28711037988281246), Message('note_off', channel=0, note=58, velocity=0, time=0.039062636718749995), Message('note_off', channel=0, note=53, velocity=0, time=0.287761423828125), Message('note_on', channel=0, note=65, velocity=57, time=0.0045573076171875), Message('note_on', channel=0, note=38, velocity=49, time=0), Message('note_off', channel=0, note=70, velocity=0, time=0.07617214160156249), Message('note_on', channel=0, note=53, velocity=50, time=0.2753915888671875), Message('note_off', channel=0, note=38, velocity=0, time=0.039062636718749995), Message('note_on', channel=0, note=58, velocity=50, time=0.29036559960937497), Message('note_off', channel=0, note=53, velocity=0, time=0.039062636718749995), MetaMessage('set_tempo', tempo=666669, time=0.277344720703125), Message('note_on', channel=0, note=53, velocity=50, time=0.014974010742187498), Message('note_off', channel=0, note=58, velocity=0, time=0.039062636718749995), MetaMessage('set_tempo', tempo=670599, time=0.0644533505859375), MetaMessage('set_tempo', tempo=670599, time=0.11918849414062499), Message('note_on', channel=0, note=58, velocity=50, time=0.10871038476562499), MetaMessage('set_tempo', tempo=674576, time=0.010478109375), Message('note_off', channel=0, note=53, velocity=0, time=0.0289856875), MetaMessage('set_tempo', tempo=674576, time=0.09090965625), MetaMessage('set_tempo', tempo=678148, time=0.11989534375), Message('note_on', channel=0, note=53, velocity=45, time=0.08013272265625), Message('note_off', channel=0, note=58, velocity=0, time=0.039735234375), MetaMessage('set_tempo', tempo=678148, time=0.00066225390625), MetaMessage('set_tempo', tempo=682216, time=0.12053021093749999), Message('note_off', channel=0, note=65, velocity=0, time=0.15189965625), Message('note_off', channel=0, note=53, velocity=0, time=0.020653023437499998), MetaMessage('set_tempo', tempo=666669, time=0.0019986796875), Message('note_on', channel=0, note=63, velocity=62, time=0.00260417578125), Message('note_on', channel=0, note=48, velocity=50, time=0), Message('note_on', channel=0, note=55, velocity=50, time=0.35156373046875), Message('note_off', channel=0, note=48, velocity=0, time=0.039062636718749995), Message('note_on', channel=0, note=58, velocity=50, time=0.29036559960937497), Message('note_off', channel=0, note=55, velocity=0, time=0.039062636718749995), Message('note_on', channel=0, note=55, velocity=50, time=0.2923187314453125), Message('note_off', channel=0, note=58, velocity=0, time=0.039062636718749995), Message('note_on', channel=0, note=62, velocity=62, time=0.2910166435546875), Message('note_on', channel=0, note=58, velocity=50, time=0), Message('note_off', channel=0, note=55, velocity=0, time=0.039062636718749995), Message('note_off', channel=0, note=63, velocity=0, time=0.013020878906249998), Message('note_on', channel=0, note=55, velocity=45, time=0.2740895009765625), Message('note_off', channel=0, note=58, velocity=0, time=0.039062636718749995), Message('note_off', channel=0, note=55, velocity=0, time=0.287761423828125), Message('note_on', channel=0, note=63, velocity=62, time=0.0045573076171875), Message('note_on', channel=0, note=41, velocity=50, time=0), Message('note_off', channel=0, note=62, velocity=0, time=0.0227865380859375), Message('note_on', channel=0, note=48, velocity=50, time=0.3287771923828125), Message('note_off', channel=0, note=41, velocity=0, time=0.039062636718749995), Message('note_on', channel=0, note=57, velocity=50, time=0.29036559960937497), Message('note_off', channel=0, note=48, velocity=0, time=0.039062636718749995), Message('note_on', channel=0, note=48, velocity=50, time=0.2923187314453125), Message('note_off', channel=0, note=57, velocity=0, time=0.039062636718749995), Message('note_on', channel=0, note=65, velocity=62, time=0.2910166435546875), Message('note_on', channel=0, note=57, velocity=50, time=0), Message('note_off', channel=0, note=48, velocity=0, time=0.039062636718749995), Message('note_off', channel=0, note=63, velocity=0, time=0.013020878906249998), Message('note_on', channel=0, note=48, velocity=45, time=0.2740895009765625), Message('note_off', channel=0, note=57, velocity=0, time=0.039062636718749995), Message('note_off', channel=0, note=48, velocity=0, time=0.287761423828125), Message('note_on', channel=0, note=62, velocity=62, time=0.0045573076171875), Message('note_on', channel=0, note=46, velocity=50, time=0), Message('note_off', channel=0, note=65, velocity=0, time=0.0227865380859375), Message('note_on', channel=0, note=53, velocity=50, time=0.3287771923828125), Message('note_off', channel=0, note=46, velocity=0, time=0.039062636718749995), Message('note_on', channel=0, note=58, velocity=50, time=0.29036559960937497), Message('note_off', channel=0, note=53, velocity=0, time=0.039062636718749995), Message('note_on', channel=0, note=53, velocity=50, time=0.2923187314453125), Message('note_off', channel=0, note=58, velocity=0, time=0.039062636718749995), Message('note_on', channel=0, note=58, velocity=50, time=0.2910166435546875), Message('note_off', channel=0, note=53, velocity=0, time=0.039062636718749995), Message('note_on', channel=0, note=53, velocity=45, time=0.28711037988281246), Message('note_off', channel=0, note=58, velocity=0, time=0.039062636718749995), Message('note_off', channel=0, note=53, velocity=0, time=0.287761423828125), Message('note_on', channel=0, note=44, velocity=50, time=0.0045573076171875), Message('note_on', channel=0, note=53, velocity=50, time=0.35156373046875), Message('note_off', channel=0, note=44, velocity=0, time=0.039062636718749995), Message('note_on', channel=0, note=56, velocity=50, time=0.29036559960937497), Message('note_off', channel=0, note=53, velocity=0, time=0.039062636718749995), Message('note_on', channel=0, note=53, velocity=50, time=0.2923187314453125), Message('note_off', channel=0, note=56, velocity=0, time=0.039062636718749995), Message('note_off', channel=0, note=62, velocity=0, time=0.2688811494140625), Message('note_on', channel=0, note=70, velocity=62, time=0.022135494140625), Message('note_on', channel=0, note=56, velocity=50, time=0), Message('note_off', channel=0, note=53, velocity=0, time=0.039062636718749995), Message('note_on', channel=0, note=53, velocity=45, time=0.28711037988281246), Message('note_off', channel=0, note=56, velocity=0, time=0.039062636718749995), Message('note_off', channel=0, note=53, velocity=0, time=0.287761423828125), Message('note_off', channel=0, note=70, velocity=0, time=0.001302087890625), Message('note_on', channel=0, note=70, velocity=62, time=0.0032552197265624996), Message('note_on', channel=0, note=39, velocity=49, time=0), Message('note_on', channel=0, note=46, velocity=50, time=0.35156373046875), Message('note_off', channel=0, note=39, velocity=0, time=0.039062636718749995), Message('note_on', channel=0, note=58, velocity=50, time=0.29036559960937497), Message('note_off', channel=0, note=46, velocity=0, time=0.039062636718749995), Message('note_on', channel=0, note=55, velocity=50, time=0.2923187314453125), Message('note_off', channel=0, note=58, velocity=0, time=0.039062636718749995), Message('note_on', channel=0, note=58, velocity=50, time=0.2910166435546875), Message('note_off', channel=0, note=55, velocity=0, time=0.039062636718749995), Message('note_on', channel=0, note=55, velocity=45, time=0.28711037988281246), Message('note_off', channel=0, note=58, velocity=0, time=0.039062636718749995), Message('note_off', channel=0, note=55, velocity=0, time=0.287761423828125), Message('note_on', channel=0, note=69, velocity=62, time=0.0045573076171875), Message('note_on', channel=0, note=39, velocity=49, time=0), Message('note_off', channel=0, note=70, velocity=0, time=0.07617214160156249), Message('note_on', channel=0, note=46, velocity=50, time=0.2753915888671875), Message('note_off', channel=0, note=39, velocity=0, time=0.039062636718749995), Message('note_on', channel=0, note=58, velocity=50, time=0.29036559960937497), Message('note_off', channel=0, note=46, velocity=0, time=0.039062636718749995), Message('note_on', channel=0, note=55, velocity=50, time=0.2923187314453125), Message('note_off', channel=0, note=58, velocity=0, time=0.039062636718749995), Message('note_on', channel=0, note=72, velocity=62, time=0.2910166435546875), Message('note_on', channel=0, note=58, velocity=50, time=0), Message('note_off', channel=0, note=55, velocity=0, time=0.039062636718749995), Message('note_off', channel=0, note=69, velocity=0, time=0.013020878906249998), Message('note_on', channel=0, note=55, velocity=45, time=0.2740895009765625), Message('note_off', channel=0, note=58, velocity=0, time=0.039062636718749995), Message('note_off', channel=0, note=55, velocity=0, time=0.287761423828125), Message('note_on', channel=0, note=70, velocity=62, time=0.0045573076171875), Message('note_on', channel=0, note=38, velocity=49, time=0), Message('note_off', channel=0, note=72, velocity=0, time=0.0227865380859375), Message('note_on', channel=0, note=53, velocity=50, time=0.3287771923828125), Message('note_off', channel=0, note=38, velocity=0, time=0.039062636718749995), Message('note_on', channel=0, note=58, velocity=50, time=0.29036559960937497), Message('note_off', channel=0, note=53, velocity=0, time=0.039062636718749995), Message('note_on', channel=0, note=53, velocity=50, time=0.2923187314453125), Message('note_off', channel=0, note=58, velocity=0, time=0.039062636718749995), Message('note_on', channel=0, note=65, velocity=62, time=0.2910166435546875), Message('note_on', channel=0, note=58, velocity=50, time=0), Message('note_off', channel=0, note=53, velocity=0, time=0.039062636718749995), Message('note_off', channel=0, note=70, velocity=0, time=0.013020878906249998), Message('note_on', channel=0, note=53, velocity=45, time=0.2740895009765625), Message('note_off', channel=0, note=58, velocity=0, time=0.039062636718749995), Message('note_off', channel=0, note=53, velocity=0, time=0.287761423828125), Message('note_on', channel=0, note=77, velocity=57, time=0.0045573076171875), Message('note_on', channel=0, note=38, velocity=49, time=0), Message('note_off', channel=0, note=65, velocity=0, time=0.0227865380859375), Message('note_on', channel=0, note=53, velocity=50, time=0.3287771923828125), Message('note_off', channel=0, note=38, velocity=0, time=0.039062636718749995), Message('note_on', channel=0, note=58, velocity=50, time=0.29036559960937497), Message('note_off', channel=0, note=53, velocity=0, time=0.039062636718749995), MetaMessage('set_tempo', tempo=666669, time=0.277344720703125), Message('note_on', channel=0, note=53, velocity=50, time=0.014974010742187498), Message('note_off', channel=0, note=58, velocity=0, time=0.039062636718749995), MetaMessage('set_tempo', tempo=670599, time=0.0644533505859375), MetaMessage('set_tempo', tempo=670599, time=0.11918849414062499), Message('note_on', channel=0, note=58, velocity=50, time=0.10871038476562499), MetaMessage('set_tempo', tempo=674576, time=0.010478109375), Message('note_off', channel=0, note=53, velocity=0, time=0.0289856875), MetaMessage('set_tempo', tempo=674576, time=0.09090965625), MetaMessage('set_tempo', tempo=678148, time=0.11989534375), Message('note_on', channel=0, note=53, velocity=45, time=0.08013272265625), Message('note_off', channel=0, note=58, velocity=0, time=0.039735234375), MetaMessage('set_tempo', tempo=678148, time=0.00066225390625), MetaMessage('set_tempo', tempo=682216, time=0.12053021093749999), Message('note_off', channel=0, note=77, velocity=0, time=0.15189965625), Message('note_off', channel=0, note=53, velocity=0, time=0.020653023437499998), MetaMessage('set_tempo', tempo=666669, time=0.0019986796875), Message('note_on', channel=0, note=75, velocity=62, time=0.00260417578125), Message('note_on', channel=0, note=48, velocity=50, time=0), Message('note_on', channel=0, note=55, velocity=50, time=0.35156373046875), Message('note_off', channel=0, note=48, velocity=0, time=0.039062636718749995), Message('note_on', channel=0, note=58, velocity=50, time=0.29036559960937497), Message('note_off', channel=0, note=55, velocity=0, time=0.039062636718749995), Message('note_on', channel=0, note=55, velocity=50, time=0.2923187314453125), Message('note_off', channel=0, note=58, velocity=0, time=0.039062636718749995), Message('note_on', channel=0, note=58, velocity=50, time=0.2910166435546875), Message('note_off', channel=0, note=55, velocity=0, time=0.039062636718749995), Message('note_on', channel=0, note=55, velocity=45, time=0.28711037988281246), Message('note_off', channel=0, note=58, velocity=0, time=0.039062636718749995), Message('note_off', channel=0, note=55, velocity=0, time=0.287761423828125), Message('note_on', channel=0, note=74, velocity=62, time=0.0045573076171875), Message('note_on', channel=0, note=41, velocity=50, time=0), Message('note_off', channel=0, note=75, velocity=0, time=0.07617214160156249), Message('note_on', channel=0, note=48, velocity=50, time=0.2753915888671875), Message('note_off', channel=0, note=41, velocity=0, time=0.039062636718749995), Message('note_on', channel=0, note=57, velocity=50, time=0.29036559960937497), Message('note_off', channel=0, note=48, velocity=0, time=0.039062636718749995), Message('note_on', channel=0, note=48, velocity=50, time=0.2923187314453125), Message('note_off', channel=0, note=57, velocity=0, time=0.039062636718749995), Message('note_on', channel=0, note=72, velocity=62, time=0.2910166435546875), Message('note_on', channel=0, note=57, velocity=50, time=0), Message('note_off', channel=0, note=48, velocity=0, time=0.039062636718749995), Message('note_off', channel=0, note=74, velocity=0, time=0.013020878906249998), Message('note_on', channel=0, note=48, velocity=45, time=0.2740895009765625), Message('note_off', channel=0, note=57, velocity=0, time=0.039062636718749995), Message('note_off', channel=0, note=48, velocity=0, time=0.287761423828125), Message('note_on', channel=0, note=70, velocity=62, time=0.0045573076171875), Message('note_on', channel=0, note=46, velocity=50, time=0), Message('note_off', channel=0, note=72, velocity=0, time=0.0227865380859375), Message('note_on', channel=0, note=53, velocity=50, time=0.3287771923828125), Message('note_off', channel=0, note=46, velocity=0, time=0.039062636718749995), Message('note_on', channel=0, note=58, velocity=50, time=0.29036559960937497), Message('note_off', channel=0, note=53, velocity=0, time=0.039062636718749995), MetaMessage('set_tempo', tempo=666669, time=0.277344720703125), Message('note_on', channel=0, note=53, velocity=50, time=0.014974010742187498), Message('note_off', channel=0, note=58, velocity=0, time=0.039062636718749995), MetaMessage('set_tempo', tempo=670599, time=0.0644533505859375), MetaMessage('set_tempo', tempo=674576, time=0.11918849414062499), Message('note_on', channel=0, note=58, velocity=50, time=0.10935509375), MetaMessage('set_tempo', tempo=678148, time=0.01054025), Message('note_off', channel=0, note=53, velocity=0, time=0.029139171874999998), MetaMessage('set_tempo', tempo=682216, time=0.0913910390625), MetaMessage('set_tempo', tempo=685869, time=0.12125323437499999), Message('note_on', channel=0, note=53, velocity=45, time=0.08104506738281249), Message('note_off', channel=0, note=58, velocity=0, time=0.040187636718749996), MetaMessage('set_tempo', tempo=690030, time=0.0006697939453125), MetaMessage('set_tempo', tempo=693768, time=0.12264205078124998), Message('note_off', channel=0, note=53, velocity=0, time=0.17615203124999998), Message('note_on', channel=0, note=46, velocity=50, time=0.004065046875), MetaMessage('set_tempo', tempo=666669, time=0.17073196875), Message('note_on', channel=0, note=53, velocity=50, time=0.18750065624999998), Message('note_off', channel=0, note=46, velocity=0, time=0.039062636718749995), Message('note_on', channel=0, note=58, velocity=50, time=0.29036559960937497), Message('note_off', channel=0, note=53, velocity=0, time=0.039062636718749995), Message('note_on', channel=0, note=62, velocity=50, time=0.2923187314453125), Message('note_off', channel=0, note=58, velocity=0, time=0.039062636718749995), Message('note_on', channel=0, note=58, velocity=50, time=0.2910166435546875), Message('note_off', channel=0, note=62, velocity=0, time=0.039062636718749995), Message('note_on', channel=0, note=53, velocity=45, time=0.28711037988281246), Message('note_off', channel=0, note=58, velocity=0, time=0.039062636718749995), Message('note_off', channel=0, note=70, velocity=0, time=0.26823010546875), Message('note_off', channel=0, note=53, velocity=0, time=0.019531318359374997), Message('note_on', channel=0, note=43, velocity=50, time=0.0045573076171875), Message('note_on', channel=0, note=50, velocity=50, time=0.35156373046875), Message('note_off', channel=0, note=43, velocity=0, time=0.039062636718749995), Message('note_on', channel=0, note=55, velocity=50, time=0.29036559960937497), Message('note_off', channel=0, note=50, velocity=0, time=0.039062636718749995), Message('note_on', channel=0, note=58, velocity=50, time=0.2923187314453125), Message('note_off', channel=0, note=55, velocity=0, time=0.039062636718749995), Message('note_on', channel=0, note=55, velocity=50, time=0.2910166435546875), Message('note_off', channel=0, note=58, velocity=0, time=0.039062636718749995), Message('note_on', channel=0, note=50, velocity=45, time=0.28711037988281246), Message('note_off', channel=0, note=55, velocity=0, time=0.039062636718749995), Message('note_off', channel=0, note=50, velocity=0, time=0.287761423828125), Message('note_on', channel=0, note=48, velocity=50, time=0.0045573076171875), Message('note_on', channel=0, note=55, velocity=50, time=0.35156373046875), Message('note_off', channel=0, note=48, velocity=0, time=0.039062636718749995), Message('note_on', channel=0, note=58, velocity=50, time=0.29036559960937497), Message('note_off', channel=0, note=55, velocity=0, time=0.039062636718749995), Message('note_on', channel=0, note=65, velocity=50, time=0.2923187314453125), Message('note_off', channel=0, note=58, velocity=0, time=0.039062636718749995), Message('note_on', channel=0, note=58, velocity=50, time=0.2910166435546875), Message('note_off', channel=0, note=65, velocity=0, time=0.039062636718749995), Message('note_on', channel=0, note=55, velocity=45, time=0.28711037988281246), Message('note_off', channel=0, note=58, velocity=0, time=0.039062636718749995), Message('note_off', channel=0, note=55, velocity=0, time=0.287761423828125), Message('note_on', channel=0, note=41, velocity=50, time=0.0045573076171875), Message('note_on', channel=0, note=53, velocity=50, time=0.35156373046875), Message('note_off', channel=0, note=41, velocity=0, time=0.039062636718749995), Message('note_on', channel=0, note=60, velocity=50, time=0.29036559960937497), Message('note_off', channel=0, note=53, velocity=0, time=0.039062636718749995), Message('note_on', channel=0, note=63, velocity=50, time=0.2923187314453125), Message('note_off', channel=0, note=60, velocity=0, time=0.039062636718749995), Message('note_on', channel=0, note=65, velocity=65, time=0.2910166435546875), Message('note_on', channel=0, note=60, velocity=50, time=0), Message('note_off', channel=0, note=63, velocity=0, time=0.039062636718749995), Message('note_on', channel=0, note=57, velocity=45, time=0.28711037988281246), Message('note_off', channel=0, note=60, velocity=0, time=0.039062636718749995), Message('note_off', channel=0, note=57, velocity=0, time=0.287761423828125), Message('note_off', channel=0, note=65, velocity=0, time=0.001302087890625), MetaMessage('set_tempo', tempo=666669, time=0.0006510439453125), Message('note_on', channel=0, note=70, velocity=62, time=0.00260417578125), Message('note_on', channel=0, note=46, velocity=50, time=0), Message('note_on', channel=0, note=53, velocity=50, time=0.35156373046875), Message('note_off', channel=0, note=46, velocity=0, time=0.039062636718749995), Message('note_on', channel=0, note=58, velocity=50, time=0.29036559960937497), Message('note_off', channel=0, note=53, velocity=0, time=0.039062636718749995), Message('note_on', channel=0, note=62, velocity=50, time=0.2923187314453125), Message('note_off', channel=0, note=58, velocity=0, time=0.039062636718749995), Message('note_on', channel=0, note=65, velocity=62, time=0.2910166435546875), Message('note_on', channel=0, note=58, velocity=50, time=0), Message('note_off', channel=0, note=62, velocity=0, time=0.039062636718749995), Message('note_off', channel=0, note=70, velocity=0, time=0.013020878906249998), Message('note_on', channel=0, note=53, velocity=45, time=0.2740895009765625), Message('note_off', channel=0, note=58, velocity=0, time=0.039062636718749995), Message('note_off', channel=0, note=53, velocity=0, time=0.287761423828125), Message('note_on', channel=0, note=74, velocity=62, time=0.0045573076171875), Message('note_on', channel=0, note=43, velocity=50, time=0), Message('note_off', channel=0, note=65, velocity=0, time=0.0227865380859375), Message('note_on', channel=0, note=50, velocity=50, time=0.3287771923828125), Message('note_off', channel=0, note=43, velocity=0, time=0.039062636718749995), Message('note_on', channel=0, note=55, velocity=50, time=0.29036559960937497), Message('note_off', channel=0, note=50, velocity=0, time=0.039062636718749995), Message('note_on', channel=0, note=58, velocity=50, time=0.2923187314453125), Message('note_off', channel=0, note=55, velocity=0, time=0.039062636718749995), Message('note_on', channel=0, note=70, velocity=62, time=0.2910166435546875), Message('note_on', channel=0, note=55, velocity=50, time=0), Message('note_off', channel=0, note=58, velocity=0, time=0.039062636718749995), Message('note_off', channel=0, note=74, velocity=0, time=0.013020878906249998), Message('note_on', channel=0, note=50, velocity=45, time=0.2740895009765625), Message('note_off', channel=0, note=55, velocity=0, time=0.039062636718749995), Message('note_off', channel=0, note=50, velocity=0, time=0.287761423828125), Message('note_on', channel=0, note=77, velocity=62, time=0.0045573076171875), Message('note_on', channel=0, note=48, velocity=50, time=0), Message('note_off', channel=0, note=70, velocity=0, time=0.0227865380859375), Message('note_on', channel=0, note=55, velocity=50, time=0.3287771923828125), Message('note_off', channel=0, note=48, velocity=0, time=0.039062636718749995), Message('note_on', channel=0, note=58, velocity=50, time=0.29036559960937497), Message('note_off', channel=0, note=55, velocity=0, time=0.039062636718749995), Message('note_on', channel=0, note=65, velocity=50, time=0.2923187314453125), Message('note_off', channel=0, note=58, velocity=0, time=0.039062636718749995), Message('note_on', channel=0, note=58, velocity=50, time=0.2910166435546875), Message('note_off', channel=0, note=65, velocity=0, time=0.039062636718749995), Message('note_on', channel=0, note=55, velocity=45, time=0.28711037988281246), Message('note_off', channel=0, note=58, velocity=0, time=0.039062636718749995), Message('note_off', channel=0, note=55, velocity=0, time=0.287761423828125), Message('note_on', channel=0, note=41, velocity=50, time=0.0045573076171875), Message('note_on', channel=0, note=53, velocity=50, time=0.35156373046875), Message('note_off', channel=0, note=41, velocity=0, time=0.039062636718749995), Message('note_on', channel=0, note=60, velocity=50, time=0.29036559960937497), Message('note_off', channel=0, note=53, velocity=0, time=0.039062636718749995), Message('note_on', channel=0, note=63, velocity=50, time=0.2923187314453125), Message('note_off', channel=0, note=60, velocity=0, time=0.039062636718749995), Message('note_off', channel=0, note=77, velocity=0, time=0.2688811494140625), Message('note_on', channel=0, note=65, velocity=62, time=0.022135494140625), Message('note_on', channel=0, note=60, velocity=50, time=0), Message('note_off', channel=0, note=63, velocity=0, time=0.039062636718749995), Message('note_on', channel=0, note=57, velocity=45, time=0.28711037988281246), Message('note_off', channel=0, note=60, velocity=0, time=0.039062636718749995), Message('note_off', channel=0, note=57, velocity=0, time=0.287761423828125), Message('note_on', channel=0, note=70, velocity=62, time=0.0045573076171875), Message('note_on', channel=0, note=46, velocity=50, time=0), Message('note_off', channel=0, note=65, velocity=0, time=0.0227865380859375), Message('note_on', channel=0, note=53, velocity=50, time=0.3287771923828125), Message('note_off', channel=0, note=46, velocity=0, time=0.039062636718749995), Message('note_on', channel=0, note=58, velocity=50, time=0.29036559960937497), Message('note_off', channel=0, note=53, velocity=0, time=0.039062636718749995), Message('note_on', channel=0, note=62, velocity=50, time=0.2923187314453125), Message('note_off', channel=0, note=58, velocity=0, time=0.039062636718749995), Message('note_on', channel=0, note=65, velocity=62, time=0.2910166435546875), Message('note_on', channel=0, note=58, velocity=50, time=0), Message('note_off', channel=0, note=62, velocity=0, time=0.039062636718749995), Message('note_off', channel=0, note=70, velocity=0, time=0.013020878906249998), Message('note_on', channel=0, note=53, velocity=45, time=0.2740895009765625), Message('note_off', channel=0, note=58, velocity=0, time=0.039062636718749995), Message('note_off', channel=0, note=53, velocity=0, time=0.287761423828125), Message('note_on', channel=0, note=74, velocity=62, time=0.0045573076171875), Message('note_on', channel=0, note=43, velocity=50, time=0), Message('note_off', channel=0, note=65, velocity=0, time=0.0227865380859375), Message('note_on', channel=0, note=50, velocity=50, time=0.3287771923828125), Message('note_off', channel=0, note=43, velocity=0, time=0.039062636718749995), Message('note_on', channel=0, note=55, velocity=50, time=0.29036559960937497), Message('note_off', channel=0, note=50, velocity=0, time=0.039062636718749995), Message('note_on', channel=0, note=58, velocity=50, time=0.2923187314453125), Message('note_off', channel=0, note=55, velocity=0, time=0.039062636718749995), Message('note_on', channel=0, note=70, velocity=62, time=0.2910166435546875), Message('note_on', channel=0, note=55, velocity=50, time=0), Message('note_off', channel=0, note=58, velocity=0, time=0.039062636718749995), Message('note_off', channel=0, note=74, velocity=0, time=0.013020878906249998), Message('note_on', channel=0, note=50, velocity=45, time=0.2740895009765625), Message('note_off', channel=0, note=55, velocity=0, time=0.039062636718749995), Message('note_off', channel=0, note=50, velocity=0, time=0.287761423828125), Message('note_on', channel=0, note=77, velocity=62, time=0.0045573076171875), Message('note_on', channel=0, note=48, velocity=50, time=0), Message('note_off', channel=0, note=70, velocity=0, time=0.0227865380859375), Message('note_on', channel=0, note=55, velocity=50, time=0.3287771923828125), Message('note_off', channel=0, note=48, velocity=0, time=0.039062636718749995), Message('note_on', channel=0, note=58, velocity=50, time=0.29036559960937497), Message('note_off', channel=0, note=55, velocity=0, time=0.039062636718749995), Message('note_on', channel=0, note=65, velocity=50, time=0.2923187314453125), Message('note_off', channel=0, note=58, velocity=0, time=0.039062636718749995), Message('note_on', channel=0, note=58, velocity=50, time=0.2910166435546875), Message('note_off', channel=0, note=65, velocity=0, time=0.039062636718749995), Message('note_on', channel=0, note=55, velocity=45, time=0.28711037988281246), Message('note_off', channel=0, note=58, velocity=0, time=0.039062636718749995), Message('note_off', channel=0, note=55, velocity=0, time=0.287761423828125), Message('note_on', channel=0, note=41, velocity=50, time=0.0045573076171875), Message('note_on', channel=0, note=53, velocity=50, time=0.35156373046875), Message('note_off', channel=0, note=41, velocity=0, time=0.039062636718749995), Message('note_on', channel=0, note=60, velocity=50, time=0.29036559960937497), Message('note_off', channel=0, note=53, velocity=0, time=0.039062636718749995), Message('note_on', channel=0, note=63, velocity=50, time=0.2923187314453125), Message('note_off', channel=0, note=60, velocity=0, time=0.039062636718749995), Message('note_off', channel=0, note=77, velocity=0, time=0.29036559960937497), Message('note_on', channel=0, note=77, velocity=62, time=0.0006510439453125), Message('note_on', channel=0, note=60, velocity=50, time=0), Message('note_off', channel=0, note=63, velocity=0, time=0.039062636718749995), Message('note_on', channel=0, note=57, velocity=45, time=0.28711037988281246), Message('note_off', channel=0, note=60, velocity=0, time=0.039062636718749995), Message('note_off', channel=0, note=57, velocity=0, time=0.287761423828125), Message('note_on', channel=0, note=79, velocity=62, time=0.0045573076171875), Message('note_on', channel=0, note=39, velocity=49, time=0), Message('note_off', channel=0, note=77, velocity=0, time=0.0227865380859375), Message('note_on', channel=0, note=46, velocity=50, time=0.3287771923828125), Message('note_off', channel=0, note=39, velocity=0, time=0.039062636718749995), Message('note_on', channel=0, note=58, velocity=50, time=0.29036559960937497), Message('note_off', channel=0, note=46, velocity=0, time=0.039062636718749995), Message('note_on', channel=0, note=55, velocity=50, time=0.2923187314453125), Message('note_off', channel=0, note=58, velocity=0, time=0.039062636718749995), Message('note_on', channel=0, note=58, velocity=50, time=0.2910166435546875), Message('note_off', channel=0, note=55, velocity=0, time=0.039062636718749995), Message('note_on', channel=0, note=55, velocity=45, time=0.28711037988281246), Message('note_off', channel=0, note=58, velocity=0, time=0.039062636718749995), Message('note_off', channel=0, note=55, velocity=0, time=0.287761423828125), Message('note_on', channel=0, note=69, velocity=62, time=0.0045573076171875), Message('note_on', channel=0, note=41, velocity=50, time=0), Message('note_off', channel=0, note=79, velocity=0, time=0.07617214160156249), Message('note_on', channel=0, note=48, velocity=50, time=0.2753915888671875), Message('note_off', channel=0, note=41, velocity=0, time=0.039062636718749995), Message('note_on', channel=0, note=57, velocity=50, time=0.29036559960937497), Message('note_off', channel=0, note=48, velocity=0, time=0.039062636718749995), MetaMessage('set_tempo', tempo=666669, time=0.277344720703125), Message('note_on', channel=0, note=53, velocity=50, time=0.014974010742187498), Message('note_off', channel=0, note=57, velocity=0, time=0.039062636718749995), MetaMessage('set_tempo', tempo=670599, time=0.0644533505859375), MetaMessage('set_tempo', tempo=674576, time=0.11918849414062499), Message('note_on', channel=0, note=79, velocity=62, time=0.10935509375), Message('note_on', channel=0, note=57, velocity=50, time=0), MetaMessage('set_tempo', tempo=678148, time=0.01054025), Message('note_off', channel=0, note=53, velocity=0, time=0.029139171874999998), Message('note_off', channel=0, note=69, velocity=0, time=0.013245078125), MetaMessage('set_tempo', tempo=682216, time=0.0781459609375), MetaMessage('set_tempo', tempo=685869, time=0.12125323437499999), Message('note_on', channel=0, note=53, velocity=45, time=0.08104506738281249), Message('note_off', channel=0, note=57, velocity=0, time=0.040187636718749996), MetaMessage('set_tempo', tempo=690030, time=0.0006697939453125), MetaMessage('set_tempo', tempo=693768, time=0.12264205078124998), Message('note_off', channel=0, note=53, velocity=0, time=0.17615203124999998), Message('note_on', channel=0, note=77, velocity=62, time=0.004065046875), Message('note_on', channel=0, note=46, velocity=50, time=0), Message('note_off', channel=0, note=79, velocity=0, time=0.023712773437499998), MetaMessage('set_tempo', tempo=666669, time=0.1470191953125), Message('note_on', channel=0, note=53, velocity=50, time=0.18750065624999998), Message('note_off', channel=0, note=46, velocity=0, time=0.039062636718749995), Message('note_on', channel=0, note=58, velocity=50, time=0.29036559960937497), Message('note_off', channel=0, note=53, velocity=0, time=0.039062636718749995), Message('note_on', channel=0, note=53, velocity=50, time=0.2923187314453125), Message('note_off', channel=0, note=58, velocity=0, time=0.039062636718749995), Message('note_on', channel=0, note=58, velocity=50, time=0.2910166435546875), Message('note_off', channel=0, note=53, velocity=0, time=0.039062636718749995), Message('note_on', channel=0, note=53, velocity=45, time=0.28711037988281246), Message('note_off', channel=0, note=58, velocity=0, time=0.039062636718749995), Message('note_off', channel=0, note=53, velocity=0, time=0.287761423828125), Message('note_on', channel=0, note=74, velocity=57, time=0.0045573076171875), Message('note_on', channel=0, note=43, velocity=50, time=0), Message('note_off', channel=0, note=77, velocity=0, time=0.07617214160156249), Message('note_on', channel=0, note=50, velocity=50, time=0.2753915888671875), Message('note_off', channel=0, note=43, velocity=0, time=0.039062636718749995), Message('note_on', channel=0, note=58, velocity=50, time=0.29036559960937497), Message('note_off', channel=0, note=50, velocity=0, time=0.039062636718749995), Message('note_on', channel=0, note=50, velocity=50, time=0.2923187314453125), Message('note_off', channel=0, note=58, velocity=0, time=0.039062636718749995), Message('note_on', channel=0, note=58, velocity=50, time=0.2910166435546875), Message('note_off', channel=0, note=50, velocity=0, time=0.039062636718749995), Message('note_on', channel=0, note=50, velocity=45, time=0.28711037988281246), Message('note_off', channel=0, note=58, velocity=0, time=0.039062636718749995), Message('note_off', channel=0, note=50, velocity=0, time=0.287761423828125), Message('note_off', channel=0, note=74, velocity=0, time=0.001302087890625), Message('note_on', channel=0, note=74, velocity=62, time=0.0032552197265624996), Message('note_on', channel=0, note=48, velocity=50, time=0), Message('note_on', channel=0, note=55, velocity=50, time=0.35156373046875), Message('note_off', channel=0, note=48, velocity=0, time=0.039062636718749995), Message('note_on', channel=0, note=58, velocity=50, time=0.29036559960937497), Message('note_off', channel=0, note=55, velocity=0, time=0.039062636718749995), Message('note_on', channel=0, note=55, velocity=50, time=0.2923187314453125), Message('note_off', channel=0, note=58, velocity=0, time=0.039062636718749995), Message('note_on', channel=0, note=58, velocity=50, time=0.2910166435546875), Message('note_off', channel=0, note=55, velocity=0, time=0.039062636718749995), Message('note_on', channel=0, note=55, velocity=45, time=0.28711037988281246), Message('note_off', channel=0, note=58, velocity=0, time=0.039062636718749995), Message('note_off', channel=0, note=55, velocity=0, time=0.287761423828125), Message('note_off', channel=0, note=74, velocity=0, time=0.001302087890625), Message('note_on', channel=0, note=74, velocity=62, time=0.0032552197265624996), Message('note_on', channel=0, note=41, velocity=50, time=0), Message('note_on', channel=0, note=48, velocity=50, time=0.35156373046875), Message('note_off', channel=0, note=41, velocity=0, time=0.039062636718749995), Message('note_on', channel=0, note=57, velocity=50, time=0.29036559960937497), Message('note_off', channel=0, note=48, velocity=0, time=0.039062636718749995), Message('note_on', channel=0, note=48, velocity=50, time=0.2923187314453125), Message('note_off', channel=0, note=57, velocity=0, time=0.039062636718749995), Message('note_on', channel=0, note=72, velocity=62, time=0.2910166435546875), Message('note_on', channel=0, note=57, velocity=50, time=0), Message('note_off', channel=0, note=48, velocity=0, time=0.039062636718749995), Message('note_off', channel=0, note=74, velocity=0, time=0.013020878906249998), Message('note_on', channel=0, note=48, velocity=45, time=0.2740895009765625), Message('note_off', channel=0, note=57, velocity=0, time=0.039062636718749995), Message('note_off', channel=0, note=48, velocity=0, time=0.287761423828125), Message('note_on', channel=0, note=70, velocity=62, time=0.0045573076171875), Message('note_on', channel=0, note=46, velocity=50, time=0), Message('note_off', channel=0, note=72, velocity=0, time=0.0227865380859375), Message('note_on', channel=0, note=53, velocity=50, time=0.3287771923828125), Message('note_off', channel=0, note=46, velocity=0, time=0.039062636718749995), Message('note_on', channel=0, note=58, velocity=50, time=0.29036559960937497), Message('note_off', channel=0, note=53, velocity=0, time=0.039062636718749995), MetaMessage('set_tempo', tempo=666669, time=0.277344720703125), Message('note_on', channel=0, note=53, velocity=50, time=0.014974010742187498), Message('note_off', channel=0, note=58, velocity=0, time=0.039062636718749995), MetaMessage('set_tempo', tempo=670599, time=0.0644533505859375), MetaMessage('set_tempo', tempo=670599, time=0.11918849414062499), Message('note_on', channel=0, note=58, velocity=50, time=0.10871038476562499), MetaMessage('set_tempo', tempo=674576, time=0.010478109375), Message('note_off', channel=0, note=53, velocity=0, time=0.0289856875), MetaMessage('set_tempo', tempo=674576, time=0.09090965625), MetaMessage('set_tempo', tempo=678148, time=0.11989534375), Message('note_on', channel=0, note=53, velocity=45, time=0.08013272265625), Message('note_off', channel=0, note=58, velocity=0, time=0.039735234375), MetaMessage('set_tempo', tempo=678148, time=0.00066225390625), MetaMessage('set_tempo', tempo=682216, time=0.12053021093749999), Message('note_off', channel=0, note=53, velocity=0, time=0.1725526796875), MetaMessage('set_tempo', tempo=666669, time=0.0019986796875), Message('note_on', channel=0, note=46, velocity=50, time=0.00260417578125), Message('note_on', channel=0, note=53, velocity=50, time=0.35156373046875), Message('note_off', channel=0, note=46, velocity=0, time=0.039062636718749995), Message('note_on', channel=0, note=58, velocity=50, time=0.29036559960937497), Message('note_off', channel=0, note=53, velocity=0, time=0.039062636718749995), MetaMessage('set_tempo', tempo=666669, time=0.277344720703125), Message('note_on', channel=0, note=53, velocity=50, time=0.014974010742187498), Message('note_off', channel=0, note=58, velocity=0, time=0.039062636718749995), MetaMessage('set_tempo', tempo=670599, time=0.0644533505859375), MetaMessage('set_tempo', tempo=674576, time=0.11918849414062499), Message('note_off', channel=0, note=70, velocity=0, time=0.08695706249999999), Message('note_on', channel=0, note=65, velocity=62, time=0.02239803125), Message('note_on', channel=0, note=58, velocity=50, time=0), MetaMessage('set_tempo', tempo=678148, time=0.01054025), Message('note_off', channel=0, note=53, velocity=0, time=0.029139171874999998), MetaMessage('set_tempo', tempo=682216, time=0.0913910390625), MetaMessage('set_tempo', tempo=685869, time=0.12125323437499999), Message('note_on', channel=0, note=53, velocity=45, time=0.08104506738281249), Message('note_off', channel=0, note=58, velocity=0, time=0.040187636718749996), MetaMessage('set_tempo', tempo=690030, time=0.0006697939453125), MetaMessage('set_tempo', tempo=693768, time=0.12264205078124998), Message('note_off', channel=0, note=53, velocity=0, time=0.17615203124999998), Message('note_on', channel=0, note=70, velocity=62, time=0.004065046875), Message('note_on', channel=0, note=46, velocity=50, time=0), Message('note_off', channel=0, note=65, velocity=0, time=0.023712773437499998), MetaMessage('set_tempo', tempo=666669, time=0.1470191953125), Message('note_on', channel=0, note=53, velocity=50, time=0.18750065624999998), Message('note_off', channel=0, note=46, velocity=0, time=0.039062636718749995), Message('note_on', channel=0, note=58, velocity=50, time=0.29036559960937497), Message('note_off', channel=0, note=53, velocity=0, time=0.039062636718749995), Message('note_on', channel=0, note=62, velocity=50, time=0.2923187314453125), Message('note_off', channel=0, note=58, velocity=0, time=0.039062636718749995), Message('note_on', channel=0, note=65, velocity=62, time=0.2910166435546875), Message('note_on', channel=0, note=58, velocity=50, time=0), Message('note_off', channel=0, note=62, velocity=0, time=0.039062636718749995), Message('note_off', channel=0, note=70, velocity=0, time=0.013020878906249998), Message('note_on', channel=0, note=53, velocity=45, time=0.2740895009765625), Message('note_off', channel=0, note=58, velocity=0, time=0.039062636718749995), Message('note_off', channel=0, note=53, velocity=0, time=0.287761423828125), Message('note_on', channel=0, note=74, velocity=62, time=0.0045573076171875), Message('note_on', channel=0, note=43, velocity=50, time=0), Message('note_off', channel=0, note=65, velocity=0, time=0.0227865380859375), Message('note_on', channel=0, note=50, velocity=50, time=0.3287771923828125), Message('note_off', channel=0, note=43, velocity=0, time=0.039062636718749995), Message('note_on', channel=0, note=55, velocity=50, time=0.29036559960937497), Message('note_off', channel=0, note=50, velocity=0, time=0.039062636718749995), Message('note_on', channel=0, note=58, velocity=50, time=0.2923187314453125), Message('note_off', channel=0, note=55, velocity=0, time=0.039062636718749995), Message('note_on', channel=0, note=70, velocity=62, time=0.2910166435546875), Message('note_on', channel=0, note=55, velocity=50, time=0), Message('note_off', channel=0, note=58, velocity=0, time=0.039062636718749995), Message('note_off', channel=0, note=74, velocity=0, time=0.013020878906249998), Message('note_on', channel=0, note=50, velocity=45, time=0.2740895009765625), Message('note_off', channel=0, note=55, velocity=0, time=0.039062636718749995), Message('note_off', channel=0, note=50, velocity=0, time=0.287761423828125), Message('note_on', channel=0, note=77, velocity=62, time=0.0045573076171875), Message('note_on', channel=0, note=48, velocity=50, time=0), Message('note_off', channel=0, note=70, velocity=0, time=0.0227865380859375), Message('note_on', channel=0, note=55, velocity=50, time=0.3287771923828125), Message('note_off', channel=0, note=48, velocity=0, time=0.039062636718749995), Message('note_on', channel=0, note=58, velocity=50, time=0.29036559960937497), Message('note_off', channel=0, note=55, velocity=0, time=0.039062636718749995), Message('note_on', channel=0, note=65, velocity=50, time=0.2923187314453125), Message('note_off', channel=0, note=58, velocity=0, time=0.039062636718749995), Message('note_on', channel=0, note=58, velocity=50, time=0.2910166435546875), Message('note_off', channel=0, note=65, velocity=0, time=0.039062636718749995), Message('note_on', channel=0, note=55, velocity=45, time=0.28711037988281246), Message('note_off', channel=0, note=58, velocity=0, time=0.039062636718749995), Message('note_off', channel=0, note=55, velocity=0, time=0.287761423828125), Message('note_on', channel=0, note=41, velocity=50, time=0.0045573076171875), Message('note_on', channel=0, note=53, velocity=50, time=0.35156373046875), Message('note_off', channel=0, note=41, velocity=0, time=0.039062636718749995), Message('note_on', channel=0, note=60, velocity=50, time=0.29036559960937497), Message('note_off', channel=0, note=53, velocity=0, time=0.039062636718749995), Message('note_on', channel=0, note=63, velocity=50, time=0.2923187314453125), Message('note_off', channel=0, note=60, velocity=0, time=0.039062636718749995), Message('note_off', channel=0, note=77, velocity=0, time=0.2688811494140625), Message('note_on', channel=0, note=65, velocity=62, time=0.022135494140625), Message('note_on', channel=0, note=60, velocity=50, time=0), Message('note_off', channel=0, note=63, velocity=0, time=0.039062636718749995), Message('note_on', channel=0, note=57, velocity=45, time=0.28711037988281246), Message('note_off', channel=0, note=60, velocity=0, time=0.039062636718749995), Message('note_off', channel=0, note=57, velocity=0, time=0.287761423828125), Message('note_on', channel=0, note=70, velocity=62, time=0.0045573076171875), Message('note_on', channel=0, note=46, velocity=50, time=0), Message('note_off', channel=0, note=65, velocity=0, time=0.0227865380859375), Message('note_on', channel=0, note=53, velocity=50, time=0.3287771923828125), Message('note_off', channel=0, note=46, velocity=0, time=0.039062636718749995), Message('note_on', channel=0, note=58, velocity=50, time=0.29036559960937497), Message('note_off', channel=0, note=53, velocity=0, time=0.039062636718749995), Message('note_on', channel=0, note=62, velocity=50, time=0.2923187314453125), Message('note_off', channel=0, note=58, velocity=0, time=0.039062636718749995), Message('note_on', channel=0, note=65, velocity=62, time=0.2910166435546875), Message('note_on', channel=0, note=58, velocity=50, time=0), Message('note_off', channel=0, note=62, velocity=0, time=0.039062636718749995), Message('note_off', channel=0, note=70, velocity=0, time=0.013020878906249998), Message('note_on', channel=0, note=53, velocity=45, time=0.2740895009765625), Message('note_off', channel=0, note=58, velocity=0, time=0.039062636718749995), Message('note_off', channel=0, note=53, velocity=0, time=0.287761423828125), Message('note_on', channel=0, note=74, velocity=62, time=0.0045573076171875), Message('note_on', channel=0, note=43, velocity=50, time=0), Message('note_off', channel=0, note=65, velocity=0, time=0.0227865380859375), Message('note_on', channel=0, note=50, velocity=50, time=0.3287771923828125), Message('note_off', channel=0, note=43, velocity=0, time=0.039062636718749995), Message('note_on', channel=0, note=55, velocity=50, time=0.29036559960937497), Message('note_off', channel=0, note=50, velocity=0, time=0.039062636718749995), Message('note_on', channel=0, note=58, velocity=50, time=0.2923187314453125), Message('note_off', channel=0, note=55, velocity=0, time=0.039062636718749995), Message('note_on', channel=0, note=70, velocity=62, time=0.2910166435546875), Message('note_on', channel=0, note=55, velocity=50, time=0), Message('note_off', channel=0, note=58, velocity=0, time=0.039062636718749995), Message('note_off', channel=0, note=74, velocity=0, time=0.013020878906249998), Message('note_on', channel=0, note=50, velocity=45, time=0.2740895009765625), Message('note_off', channel=0, note=55, velocity=0, time=0.039062636718749995), Message('note_off', channel=0, note=50, velocity=0, time=0.287761423828125), Message('note_on', channel=0, note=77, velocity=62, time=0.0045573076171875), Message('note_on', channel=0, note=48, velocity=50, time=0), Message('note_off', channel=0, note=70, velocity=0, time=0.0227865380859375), Message('note_on', channel=0, note=55, velocity=50, time=0.3287771923828125), Message('note_off', channel=0, note=48, velocity=0, time=0.039062636718749995), Message('note_on', channel=0, note=58, velocity=50, time=0.29036559960937497), Message('note_off', channel=0, note=55, velocity=0, time=0.039062636718749995), Message('note_on', channel=0, note=65, velocity=50, time=0.2923187314453125), Message('note_off', channel=0, note=58, velocity=0, time=0.039062636718749995), Message('note_on', channel=0, note=58, velocity=50, time=0.2910166435546875), Message('note_off', channel=0, note=65, velocity=0, time=0.039062636718749995), Message('note_on', channel=0, note=55, velocity=45, time=0.28711037988281246), Message('note_off', channel=0, note=58, velocity=0, time=0.039062636718749995), Message('note_off', channel=0, note=55, velocity=0, time=0.287761423828125), Message('note_on', channel=0, note=41, velocity=50, time=0.0045573076171875), Message('note_on', channel=0, note=53, velocity=50, time=0.35156373046875), Message('note_off', channel=0, note=41, velocity=0, time=0.039062636718749995), Message('note_on', channel=0, note=60, velocity=50, time=0.29036559960937497), Message('note_off', channel=0, note=53, velocity=0, time=0.039062636718749995), Message('note_on', channel=0, note=63, velocity=50, time=0.2923187314453125), Message('note_off', channel=0, note=60, velocity=0, time=0.039062636718749995), Message('note_off', channel=0, note=77, velocity=0, time=0.29036559960937497), Message('note_on', channel=0, note=77, velocity=62, time=0.0006510439453125), Message('note_on', channel=0, note=60, velocity=50, time=0), Message('note_off', channel=0, note=63, velocity=0, time=0.039062636718749995), Message('note_on', channel=0, note=57, velocity=45, time=0.28711037988281246), Message('note_off', channel=0, note=60, velocity=0, time=0.039062636718749995), Message('note_off', channel=0, note=57, velocity=0, time=0.287761423828125), Message('note_on', channel=0, note=79, velocity=62, time=0.0045573076171875), Message('note_on', channel=0, note=39, velocity=49, time=0), Message('note_off', channel=0, note=77, velocity=0, time=0.0227865380859375), Message('note_on', channel=0, note=46, velocity=50, time=0.3287771923828125), Message('note_off', channel=0, note=39, velocity=0, time=0.039062636718749995), Message('note_on', channel=0, note=58, velocity=50, time=0.29036559960937497), Message('note_off', channel=0, note=46, velocity=0, time=0.039062636718749995), Message('note_on', channel=0, note=55, velocity=50, time=0.2923187314453125), Message('note_off', channel=0, note=58, velocity=0, time=0.039062636718749995), Message('note_on', channel=0, note=58, velocity=50, time=0.2910166435546875), Message('note_off', channel=0, note=55, velocity=0, time=0.039062636718749995), Message('note_on', channel=0, note=55, velocity=45, time=0.28711037988281246), Message('note_off', channel=0, note=58, velocity=0, time=0.039062636718749995), Message('note_off', channel=0, note=55, velocity=0, time=0.287761423828125), Message('note_on', channel=0, note=69, velocity=62, time=0.0045573076171875), Message('note_on', channel=0, note=41, velocity=50, time=0), Message('note_off', channel=0, note=79, velocity=0, time=0.07617214160156249), Message('note_on', channel=0, note=48, velocity=50, time=0.2753915888671875), Message('note_off', channel=0, note=41, velocity=0, time=0.039062636718749995), Message('note_on', channel=0, note=57, velocity=50, time=0.29036559960937497), Message('note_off', channel=0, note=48, velocity=0, time=0.039062636718749995), MetaMessage('set_tempo', tempo=666669, time=0.277344720703125), Message('note_on', channel=0, note=53, velocity=50, time=0.014974010742187498), Message('note_off', channel=0, note=57, velocity=0, time=0.039062636718749995), MetaMessage('set_tempo', tempo=670599, time=0.0644533505859375), MetaMessage('set_tempo', tempo=674576, time=0.11918849414062499), Message('note_on', channel=0, note=79, velocity=62, time=0.10935509375), Message('note_on', channel=0, note=57, velocity=50, time=0), MetaMessage('set_tempo', tempo=678148, time=0.01054025), Message('note_off', channel=0, note=53, velocity=0, time=0.029139171874999998), Message('note_off', channel=0, note=69, velocity=0, time=0.013245078125), MetaMessage('set_tempo', tempo=682216, time=0.0781459609375), MetaMessage('set_tempo', tempo=685869, time=0.12125323437499999), Message('note_on', channel=0, note=53, velocity=45, time=0.08104506738281249), Message('note_off', channel=0, note=57, velocity=0, time=0.040187636718749996), MetaMessage('set_tempo', tempo=690030, time=0.0006697939453125), MetaMessage('set_tempo', tempo=693768, time=0.12264205078124998), Message('note_off', channel=0, note=53, velocity=0, time=0.17615203124999998), Message('note_on', channel=0, note=77, velocity=62, time=0.004065046875), Message('note_on', channel=0, note=46, velocity=50, time=0), Message('note_off', channel=0, note=79, velocity=0, time=0.023712773437499998), MetaMessage('set_tempo', tempo=666669, time=0.1470191953125), Message('note_on', channel=0, note=53, velocity=50, time=0.18750065624999998), Message('note_off', channel=0, note=46, velocity=0, time=0.039062636718749995), Message('note_on', channel=0, note=58, velocity=50, time=0.29036559960937497), Message('note_off', channel=0, note=53, velocity=0, time=0.039062636718749995), Message('note_on', channel=0, note=53, velocity=50, time=0.2923187314453125), Message('note_off', channel=0, note=58, velocity=0, time=0.039062636718749995), Message('note_on', channel=0, note=58, velocity=50, time=0.2910166435546875), Message('note_off', channel=0, note=53, velocity=0, time=0.039062636718749995), Message('note_on', channel=0, note=53, velocity=45, time=0.28711037988281246), Message('note_off', channel=0, note=58, velocity=0, time=0.039062636718749995), Message('note_off', channel=0, note=53, velocity=0, time=0.287761423828125), Message('note_on', channel=0, note=74, velocity=57, time=0.0045573076171875), Message('note_on', channel=0, note=43, velocity=50, time=0), Message('note_off', channel=0, note=77, velocity=0, time=0.07617214160156249), Message('note_on', channel=0, note=50, velocity=50, time=0.2753915888671875), Message('note_off', channel=0, note=43, velocity=0, time=0.039062636718749995), Message('note_on', channel=0, note=58, velocity=50, time=0.29036559960937497), Message('note_off', channel=0, note=50, velocity=0, time=0.039062636718749995), Message('note_on', channel=0, note=50, velocity=50, time=0.2923187314453125), Message('note_off', channel=0, note=58, velocity=0, time=0.039062636718749995), Message('note_on', channel=0, note=58, velocity=50, time=0.2910166435546875), Message('note_off', channel=0, note=50, velocity=0, time=0.039062636718749995), Message('note_on', channel=0, note=50, velocity=45, time=0.28711037988281246), Message('note_off', channel=0, note=58, velocity=0, time=0.039062636718749995), Message('note_off', channel=0, note=50, velocity=0, time=0.287761423828125), Message('note_off', channel=0, note=74, velocity=0, time=0.001302087890625), Message('note_on', channel=0, note=74, velocity=62, time=0.0032552197265624996), Message('note_on', channel=0, note=48, velocity=50, time=0), Message('note_on', channel=0, note=55, velocity=50, time=0.35156373046875), Message('note_off', channel=0, note=48, velocity=0, time=0.039062636718749995), Message('note_on', channel=0, note=58, velocity=50, time=0.29036559960937497), Message('note_off', channel=0, note=55, velocity=0, time=0.039062636718749995), Message('note_on', channel=0, note=55, velocity=50, time=0.2923187314453125), Message('note_off', channel=0, note=58, velocity=0, time=0.039062636718749995), Message('note_on', channel=0, note=58, velocity=50, time=0.2910166435546875), Message('note_off', channel=0, note=55, velocity=0, time=0.039062636718749995), Message('note_on', channel=0, note=55, velocity=45, time=0.28711037988281246), Message('note_off', channel=0, note=58, velocity=0, time=0.039062636718749995), Message('note_off', channel=0, note=55, velocity=0, time=0.287761423828125), Message('note_off', channel=0, note=74, velocity=0, time=0.001302087890625), Message('note_on', channel=0, note=74, velocity=62, time=0.0032552197265624996), Message('note_on', channel=0, note=41, velocity=50, time=0), Message('note_on', channel=0, note=48, velocity=50, time=0.35156373046875), Message('note_off', channel=0, note=41, velocity=0, time=0.039062636718749995), Message('note_on', channel=0, note=57, velocity=50, time=0.29036559960937497), Message('note_off', channel=0, note=48, velocity=0, time=0.039062636718749995), Message('note_on', channel=0, note=48, velocity=50, time=0.2923187314453125), Message('note_off', channel=0, note=57, velocity=0, time=0.039062636718749995), Message('note_on', channel=0, note=72, velocity=62, time=0.2910166435546875), Message('note_on', channel=0, note=57, velocity=50, time=0), Message('note_off', channel=0, note=48, velocity=0, time=0.039062636718749995), Message('note_off', channel=0, note=74, velocity=0, time=0.013020878906249998), Message('note_on', channel=0, note=48, velocity=45, time=0.2740895009765625), Message('note_off', channel=0, note=57, velocity=0, time=0.039062636718749995), Message('note_off', channel=0, note=48, velocity=0, time=0.287761423828125), Message('note_on', channel=0, note=70, velocity=62, time=0.0045573076171875), Message('note_on', channel=0, note=46, velocity=50, time=0), Message('note_off', channel=0, note=72, velocity=0, time=0.0227865380859375), Message('note_on', channel=0, note=53, velocity=50, time=0.3287771923828125), Message('note_off', channel=0, note=46, velocity=0, time=0.039062636718749995), Message('note_on', channel=0, note=58, velocity=50, time=0.29036559960937497), Message('note_off', channel=0, note=53, velocity=0, time=0.039062636718749995), MetaMessage('set_tempo', tempo=666669, time=0.277344720703125), Message('note_on', channel=0, note=53, velocity=50, time=0.014974010742187498), Message('note_off', channel=0, note=58, velocity=0, time=0.039062636718749995), MetaMessage('set_tempo', tempo=670599, time=0.0644533505859375), MetaMessage('set_tempo', tempo=674576, time=0.11918849414062499), Message('note_on', channel=0, note=58, velocity=50, time=0.10935509375), MetaMessage('set_tempo', tempo=678148, time=0.01054025), Message('note_off', channel=0, note=53, velocity=0, time=0.029139171874999998), MetaMessage('set_tempo', tempo=682216, time=0.0913910390625), MetaMessage('set_tempo', tempo=685869, time=0.12125323437499999), Message('note_on', channel=0, note=53, velocity=45, time=0.08104506738281249), Message('note_off', channel=0, note=58, velocity=0, time=0.040187636718749996), MetaMessage('set_tempo', tempo=690030, time=0.0006697939453125), MetaMessage('set_tempo', tempo=693768, time=0.12264205078124998), Message('note_off', channel=0, note=53, velocity=0, time=0.17615203124999998), Message('note_on', channel=0, note=46, velocity=50, time=0.004065046875), MetaMessage('set_tempo', tempo=666669, time=0.17073196875), Message('note_on', channel=0, note=53, velocity=50, time=0.18750065624999998), Message('note_off', channel=0, note=46, velocity=0, time=0.039062636718749995), Message('note_on', channel=0, note=58, velocity=50, time=0.29036559960937497), Message('note_off', channel=0, note=53, velocity=0, time=0.039062636718749995), Message('note_on', channel=0, note=53, velocity=50, time=0.2923187314453125), Message('note_off', channel=0, note=58, velocity=0, time=0.039062636718749995), Message('note_off', channel=0, note=70, velocity=0, time=0.29036559960937497), Message('note_on', channel=0, note=70, velocity=62, time=0.0006510439453125), Message('note_on', channel=0, note=58, velocity=50, time=0), Message('note_off', channel=0, note=53, velocity=0, time=0.039062636718749995), Message('note_on', channel=0, note=53, velocity=45, time=0.28711037988281246), Message('note_off', channel=0, note=58, velocity=0, time=0.039062636718749995), Message('note_off', channel=0, note=53, velocity=0, time=0.287761423828125), Message('note_off', channel=0, note=70, velocity=0, time=0.001302087890625), Message('note_on', channel=0, note=70, velocity=62, time=0.0032552197265624996), Message('note_on', channel=0, note=39, velocity=49, time=0), Message('note_on', channel=0, note=46, velocity=50, time=0.35156373046875), Message('note_off', channel=0, note=39, velocity=0, time=0.039062636718749995), Message('note_on', channel=0, note=58, velocity=50, time=0.29036559960937497), Message('note_off', channel=0, note=46, velocity=0, time=0.039062636718749995), Message('note_on', channel=0, note=55, velocity=50, time=0.2923187314453125), Message('note_off', channel=0, note=58, velocity=0, time=0.039062636718749995), Message('note_on', channel=0, note=58, velocity=50, time=0.2910166435546875), Message('note_off', channel=0, note=55, velocity=0, time=0.039062636718749995), Message('note_on', channel=0, note=55, velocity=45, time=0.28711037988281246), Message('note_off', channel=0, note=58, velocity=0, time=0.039062636718749995), Message('note_off', channel=0, note=55, velocity=0, time=0.287761423828125), Message('note_on', channel=0, note=69, velocity=62, time=0.0045573076171875), Message('note_on', channel=0, note=39, velocity=49, time=0), Message('note_off', channel=0, note=70, velocity=0, time=0.07617214160156249), Message('note_on', channel=0, note=46, velocity=50, time=0.2753915888671875), Message('note_off', channel=0, note=39, velocity=0, time=0.039062636718749995), Message('note_on', channel=0, note=58, velocity=50, time=0.29036559960937497), Message('note_off', channel=0, note=46, velocity=0, time=0.039062636718749995), Message('note_on', channel=0, note=55, velocity=50, time=0.2923187314453125), Message('note_off', channel=0, note=58, velocity=0, time=0.039062636718749995), Message('note_on', channel=0, note=72, velocity=62, time=0.2910166435546875), Message('note_on', channel=0, note=58, velocity=50, time=0), Message('note_off', channel=0, note=55, velocity=0, time=0.039062636718749995), Message('note_off', channel=0, note=69, velocity=0, time=0.013020878906249998), Message('note_on', channel=0, note=55, velocity=45, time=0.2740895009765625), Message('note_off', channel=0, note=58, velocity=0, time=0.039062636718749995), Message('note_off', channel=0, note=55, velocity=0, time=0.287761423828125), Message('note_on', channel=0, note=70, velocity=62, time=0.0045573076171875), Message('note_on', channel=0, note=38, velocity=49, time=0), Message('note_off', channel=0, note=72, velocity=0, time=0.0227865380859375), Message('note_on', channel=0, note=53, velocity=50, time=0.3287771923828125), Message('note_off', channel=0, note=38, velocity=0, time=0.039062636718749995), Message('note_on', channel=0, note=58, velocity=50, time=0.29036559960937497), Message('note_off', channel=0, note=53, velocity=0, time=0.039062636718749995), Message('note_on', channel=0, note=53, velocity=50, time=0.2923187314453125), Message('note_off', channel=0, note=58, velocity=0, time=0.039062636718749995), Message('note_on', channel=0, note=58, velocity=50, time=0.2910166435546875), Message('note_off', channel=0, note=53, velocity=0, time=0.039062636718749995), Message('note_on', channel=0, note=53, velocity=45, time=0.28711037988281246), Message('note_off', channel=0, note=58, velocity=0, time=0.039062636718749995), Message('note_off', channel=0, note=53, velocity=0, time=0.287761423828125), Message('note_on', channel=0, note=65, velocity=57, time=0.0045573076171875), Message('note_on', channel=0, note=38, velocity=49, time=0), Message('note_off', channel=0, note=70, velocity=0, time=0.07617214160156249), Message('note_on', channel=0, note=53, velocity=50, time=0.2753915888671875), Message('note_off', channel=0, note=38, velocity=0, time=0.039062636718749995), Message('note_on', channel=0, note=58, velocity=50, time=0.29036559960937497), Message('note_off', channel=0, note=53, velocity=0, time=0.039062636718749995), MetaMessage('set_tempo', tempo=666669, time=0.277344720703125), Message('note_on', channel=0, note=53, velocity=50, time=0.014974010742187498), Message('note_off', channel=0, note=58, velocity=0, time=0.039062636718749995), MetaMessage('set_tempo', tempo=670599, time=0.0644533505859375), MetaMessage('set_tempo', tempo=670599, time=0.11918849414062499), Message('note_on', channel=0, note=58, velocity=50, time=0.10871038476562499), MetaMessage('set_tempo', tempo=674576, time=0.010478109375), Message('note_off', channel=0, note=53, velocity=0, time=0.0289856875), MetaMessage('set_tempo', tempo=674576, time=0.09090965625), MetaMessage('set_tempo', tempo=678148, time=0.11989534375), Message('note_on', channel=0, note=53, velocity=45, time=0.08013272265625), Message('note_off', channel=0, note=58, velocity=0, time=0.039735234375), MetaMessage('set_tempo', tempo=678148, time=0.00066225390625), MetaMessage('set_tempo', tempo=682216, time=0.12053021093749999), Message('note_off', channel=0, note=65, velocity=0, time=0.15189965625), Message('note_off', channel=0, note=53, velocity=0, time=0.020653023437499998), MetaMessage('set_tempo', tempo=666669, time=0.0019986796875), Message('note_on', channel=0, note=63, velocity=62, time=0.00260417578125), Message('note_on', channel=0, note=48, velocity=50, time=0), Message('note_on', channel=0, note=55, velocity=50, time=0.35156373046875), Message('note_off', channel=0, note=48, velocity=0, time=0.039062636718749995), Message('note_on', channel=0, note=58, velocity=50, time=0.29036559960937497), Message('note_off', channel=0, note=55, velocity=0, time=0.039062636718749995), Message('note_on', channel=0, note=55, velocity=50, time=0.2923187314453125), Message('note_off', channel=0, note=58, velocity=0, time=0.039062636718749995), Message('note_on', channel=0, note=62, velocity=62, time=0.2910166435546875), Message('note_on', channel=0, note=58, velocity=50, time=0), Message('note_off', channel=0, note=55, velocity=0, time=0.039062636718749995), Message('note_off', channel=0, note=63, velocity=0, time=0.013020878906249998), Message('note_on', channel=0, note=55, velocity=45, time=0.2740895009765625), Message('note_off', channel=0, note=58, velocity=0, time=0.039062636718749995), Message('note_off', channel=0, note=55, velocity=0, time=0.287761423828125), Message('note_on', channel=0, note=63, velocity=62, time=0.0045573076171875), Message('note_on', channel=0, note=41, velocity=50, time=0), Message('note_off', channel=0, note=62, velocity=0, time=0.0227865380859375), Message('note_on', channel=0, note=48, velocity=50, time=0.3287771923828125), Message('note_off', channel=0, note=41, velocity=0, time=0.039062636718749995), Message('note_on', channel=0, note=57, velocity=50, time=0.29036559960937497), Message('note_off', channel=0, note=48, velocity=0, time=0.039062636718749995), Message('note_on', channel=0, note=48, velocity=50, time=0.2923187314453125), Message('note_off', channel=0, note=57, velocity=0, time=0.039062636718749995), Message('note_on', channel=0, note=65, velocity=62, time=0.2910166435546875), Message('note_on', channel=0, note=57, velocity=50, time=0), Message('note_off', channel=0, note=48, velocity=0, time=0.039062636718749995), Message('note_off', channel=0, note=63, velocity=0, time=0.013020878906249998), Message('note_on', channel=0, note=48, velocity=45, time=0.2740895009765625), Message('note_off', channel=0, note=57, velocity=0, time=0.039062636718749995), Message('note_off', channel=0, note=48, velocity=0, time=0.287761423828125), Message('note_on', channel=0, note=62, velocity=62, time=0.0045573076171875), Message('note_on', channel=0, note=46, velocity=50, time=0), Message('note_off', channel=0, note=65, velocity=0, time=0.0227865380859375), Message('note_on', channel=0, note=53, velocity=50, time=0.3287771923828125), Message('note_off', channel=0, note=46, velocity=0, time=0.039062636718749995), Message('note_on', channel=0, note=58, velocity=50, time=0.29036559960937497), Message('note_off', channel=0, note=53, velocity=0, time=0.039062636718749995), Message('note_on', channel=0, note=53, velocity=50, time=0.2923187314453125), Message('note_off', channel=0, note=58, velocity=0, time=0.039062636718749995), Message('note_on', channel=0, note=58, velocity=50, time=0.2910166435546875), Message('note_off', channel=0, note=53, velocity=0, time=0.039062636718749995), Message('note_on', channel=0, note=53, velocity=45, time=0.28711037988281246), Message('note_off', channel=0, note=58, velocity=0, time=0.039062636718749995), Message('note_off', channel=0, note=53, velocity=0, time=0.287761423828125), Message('note_on', channel=0, note=44, velocity=50, time=0.0045573076171875), Message('note_on', channel=0, note=53, velocity=50, time=0.35156373046875), Message('note_off', channel=0, note=44, velocity=0, time=0.039062636718749995), Message('note_on', channel=0, note=56, velocity=50, time=0.29036559960937497), Message('note_off', channel=0, note=53, velocity=0, time=0.039062636718749995), Message('note_on', channel=0, note=53, velocity=50, time=0.2923187314453125), Message('note_off', channel=0, note=56, velocity=0, time=0.039062636718749995), Message('note_off', channel=0, note=62, velocity=0, time=0.2688811494140625), Message('note_on', channel=0, note=70, velocity=62, time=0.022135494140625), Message('note_on', channel=0, note=56, velocity=50, time=0), Message('note_off', channel=0, note=53, velocity=0, time=0.039062636718749995), Message('note_on', channel=0, note=53, velocity=45, time=0.28711037988281246), Message('note_off', channel=0, note=56, velocity=0, time=0.039062636718749995), Message('note_off', channel=0, note=53, velocity=0, time=0.287761423828125), Message('note_off', channel=0, note=70, velocity=0, time=0.001302087890625), Message('note_on', channel=0, note=70, velocity=62, time=0.0032552197265624996), Message('note_on', channel=0, note=39, velocity=49, time=0), Message('note_on', channel=0, note=46, velocity=50, time=0.35156373046875), Message('note_off', channel=0, note=39, velocity=0, time=0.039062636718749995), Message('note_on', channel=0, note=58, velocity=50, time=0.29036559960937497), Message('note_off', channel=0, note=46, velocity=0, time=0.039062636718749995), Message('note_on', channel=0, note=55, velocity=50, time=0.2923187314453125), Message('note_off', channel=0, note=58, velocity=0, time=0.039062636718749995), Message('note_on', channel=0, note=58, velocity=50, time=0.2910166435546875), Message('note_off', channel=0, note=55, velocity=0, time=0.039062636718749995), Message('note_on', channel=0, note=55, velocity=45, time=0.28711037988281246), Message('note_off', channel=0, note=58, velocity=0, time=0.039062636718749995), Message('note_off', channel=0, note=55, velocity=0, time=0.287761423828125), Message('note_on', channel=0, note=69, velocity=62, time=0.0045573076171875), Message('note_on', channel=0, note=39, velocity=49, time=0), Message('note_off', channel=0, note=70, velocity=0, time=0.07617214160156249), Message('note_on', channel=0, note=46, velocity=50, time=0.2753915888671875), Message('note_off', channel=0, note=39, velocity=0, time=0.039062636718749995), Message('note_on', channel=0, note=58, velocity=50, time=0.29036559960937497), Message('note_off', channel=0, note=46, velocity=0, time=0.039062636718749995), Message('note_on', channel=0, note=55, velocity=50, time=0.2923187314453125), Message('note_off', channel=0, note=58, velocity=0, time=0.039062636718749995), Message('note_on', channel=0, note=72, velocity=62, time=0.2910166435546875), Message('note_on', channel=0, note=58, velocity=50, time=0), Message('note_off', channel=0, note=55, velocity=0, time=0.039062636718749995), Message('note_off', channel=0, note=69, velocity=0, time=0.013020878906249998), Message('note_on', channel=0, note=55, velocity=45, time=0.2740895009765625), Message('note_off', channel=0, note=58, velocity=0, time=0.039062636718749995), Message('note_off', channel=0, note=55, velocity=0, time=0.287761423828125), Message('note_on', channel=0, note=70, velocity=62, time=0.0045573076171875), Message('note_on', channel=0, note=38, velocity=49, time=0), Message('note_off', channel=0, note=72, velocity=0, time=0.0227865380859375), Message('note_on', channel=0, note=53, velocity=50, time=0.3287771923828125), Message('note_off', channel=0, note=38, velocity=0, time=0.039062636718749995), Message('note_on', channel=0, note=58, velocity=50, time=0.29036559960937497), Message('note_off', channel=0, note=53, velocity=0, time=0.039062636718749995), Message('note_on', channel=0, note=53, velocity=50, time=0.2923187314453125), Message('note_off', channel=0, note=58, velocity=0, time=0.039062636718749995), Message('note_on', channel=0, note=65, velocity=62, time=0.2910166435546875), Message('note_on', channel=0, note=58, velocity=50, time=0), Message('note_off', channel=0, note=53, velocity=0, time=0.039062636718749995), Message('note_off', channel=0, note=70, velocity=0, time=0.013020878906249998), Message('note_on', channel=0, note=53, velocity=45, time=0.2740895009765625), Message('note_off', channel=0, note=58, velocity=0, time=0.039062636718749995), Message('note_off', channel=0, note=53, velocity=0, time=0.287761423828125), Message('note_on', channel=0, note=77, velocity=57, time=0.0045573076171875), Message('note_on', channel=0, note=38, velocity=49, time=0), Message('note_off', channel=0, note=65, velocity=0, time=0.0227865380859375), Message('note_on', channel=0, note=53, velocity=50, time=0.3287771923828125), Message('note_off', channel=0, note=38, velocity=0, time=0.039062636718749995), Message('note_on', channel=0, note=58, velocity=50, time=0.29036559960937497), Message('note_off', channel=0, note=53, velocity=0, time=0.039062636718749995), MetaMessage('set_tempo', tempo=666669, time=0.277344720703125), Message('note_on', channel=0, note=53, velocity=50, time=0.014974010742187498), Message('note_off', channel=0, note=58, velocity=0, time=0.039062636718749995), MetaMessage('set_tempo', tempo=670599, time=0.0644533505859375), MetaMessage('set_tempo', tempo=670599, time=0.11918849414062499), Message('note_on', channel=0, note=58, velocity=50, time=0.10871038476562499), MetaMessage('set_tempo', tempo=674576, time=0.010478109375), Message('note_off', channel=0, note=53, velocity=0, time=0.0289856875), MetaMessage('set_tempo', tempo=674576, time=0.09090965625), MetaMessage('set_tempo', tempo=678148, time=0.11989534375), Message('note_on', channel=0, note=53, velocity=45, time=0.08013272265625), Message('note_off', channel=0, note=58, velocity=0, time=0.039735234375), MetaMessage('set_tempo', tempo=678148, time=0.00066225390625), MetaMessage('set_tempo', tempo=682216, time=0.12053021093749999), Message('note_off', channel=0, note=77, velocity=0, time=0.15189965625), Message('note_off', channel=0, note=53, velocity=0, time=0.020653023437499998), MetaMessage('set_tempo', tempo=666669, time=0.0019986796875), Message('note_on', channel=0, note=75, velocity=62, time=0.00260417578125), Message('note_on', channel=0, note=48, velocity=50, time=0), Message('note_on', channel=0, note=55, velocity=50, time=0.35156373046875), Message('note_off', channel=0, note=48, velocity=0, time=0.039062636718749995), Message('note_on', channel=0, note=58, velocity=50, time=0.29036559960937497), Message('note_off', channel=0, note=55, velocity=0, time=0.039062636718749995), Message('note_on', channel=0, note=55, velocity=50, time=0.2923187314453125), Message('note_off', channel=0, note=58, velocity=0, time=0.039062636718749995), Message('note_on', channel=0, note=58, velocity=50, time=0.2910166435546875), Message('note_off', channel=0, note=55, velocity=0, time=0.039062636718749995), Message('note_on', channel=0, note=55, velocity=45, time=0.28711037988281246), Message('note_off', channel=0, note=58, velocity=0, time=0.039062636718749995), Message('note_off', channel=0, note=55, velocity=0, time=0.287761423828125), Message('note_on', channel=0, note=74, velocity=62, time=0.0045573076171875), Message('note_on', channel=0, note=41, velocity=50, time=0), Message('note_off', channel=0, note=75, velocity=0, time=0.07617214160156249), Message('note_on', channel=0, note=48, velocity=50, time=0.2753915888671875), Message('note_off', channel=0, note=41, velocity=0, time=0.039062636718749995), Message('note_on', channel=0, note=57, velocity=50, time=0.29036559960937497), Message('note_off', channel=0, note=48, velocity=0, time=0.039062636718749995), Message('note_on', channel=0, note=48, velocity=50, time=0.2923187314453125), Message('note_off', channel=0, note=57, velocity=0, time=0.039062636718749995), Message('note_on', channel=0, note=72, velocity=62, time=0.2910166435546875), Message('note_on', channel=0, note=57, velocity=50, time=0), Message('note_off', channel=0, note=48, velocity=0, time=0.039062636718749995), Message('note_off', channel=0, note=74, velocity=0, time=0.013020878906249998), Message('note_on', channel=0, note=48, velocity=45, time=0.2740895009765625), Message('note_off', channel=0, note=57, velocity=0, time=0.039062636718749995), Message('note_off', channel=0, note=48, velocity=0, time=0.287761423828125), Message('note_on', channel=0, note=70, velocity=62, time=0.0045573076171875), Message('note_on', channel=0, note=46, velocity=50, time=0), Message('note_off', channel=0, note=72, velocity=0, time=0.0227865380859375), Message('note_on', channel=0, note=53, velocity=50, time=0.3287771923828125), Message('note_off', channel=0, note=46, velocity=0, time=0.039062636718749995), Message('note_on', channel=0, note=58, velocity=50, time=0.29036559960937497), Message('note_off', channel=0, note=53, velocity=0, time=0.039062636718749995), MetaMessage('set_tempo', tempo=666669, time=0.277344720703125), Message('note_on', channel=0, note=53, velocity=50, time=0.014974010742187498), Message('note_off', channel=0, note=58, velocity=0, time=0.039062636718749995), MetaMessage('set_tempo', tempo=670599, time=0.0644533505859375), MetaMessage('set_tempo', tempo=674576, time=0.11918849414062499), Message('note_on', channel=0, note=58, velocity=50, time=0.10935509375), MetaMessage('set_tempo', tempo=678148, time=0.01054025), Message('note_off', channel=0, note=53, velocity=0, time=0.029139171874999998), MetaMessage('set_tempo', tempo=682216, time=0.0913910390625), MetaMessage('set_tempo', tempo=685869, time=0.12125323437499999), Message('note_on', channel=0, note=53, velocity=45, time=0.08104506738281249), Message('note_off', channel=0, note=58, velocity=0, time=0.040187636718749996), MetaMessage('set_tempo', tempo=690030, time=0.0006697939453125), MetaMessage('set_tempo', tempo=693768, time=0.12264205078124998), Message('note_off', channel=0, note=53, velocity=0, time=0.17615203124999998), Message('note_on', channel=0, note=46, velocity=50, time=0.004065046875), MetaMessage('set_tempo', tempo=666669, time=0.17073196875), Message('note_on', channel=0, note=53, velocity=50, time=0.18750065624999998), Message('note_off', channel=0, note=46, velocity=0, time=0.039062636718749995), Message('note_on', channel=0, note=58, velocity=50, time=0.29036559960937497), Message('note_off', channel=0, note=53, velocity=0, time=0.039062636718749995), Message('note_on', channel=0, note=62, velocity=50, time=0.2923187314453125), Message('note_off', channel=0, note=58, velocity=0, time=0.039062636718749995), Message('note_on', channel=0, note=58, velocity=50, time=0.2910166435546875), Message('note_off', channel=0, note=62, velocity=0, time=0.039062636718749995), Message('note_on', channel=0, note=53, velocity=45, time=0.28711037988281246), Message('note_off', channel=0, note=58, velocity=0, time=0.039062636718749995), Message('note_off', channel=0, note=70, velocity=0, time=0.26823010546875), Message('note_off', channel=0, note=53, velocity=0, time=0.019531318359374997), Message('note_on', channel=0, note=43, velocity=50, time=0.0045573076171875), Message('note_on', channel=0, note=50, velocity=50, time=0.35156373046875), Message('note_off', channel=0, note=43, velocity=0, time=0.039062636718749995), Message('note_on', channel=0, note=55, velocity=50, time=0.29036559960937497), Message('note_off', channel=0, note=50, velocity=0, time=0.039062636718749995), Message('note_on', channel=0, note=58, velocity=50, time=0.2923187314453125), Message('note_off', channel=0, note=55, velocity=0, time=0.039062636718749995), Message('note_on', channel=0, note=55, velocity=50, time=0.2910166435546875), Message('note_off', channel=0, note=58, velocity=0, time=0.039062636718749995), Message('note_on', channel=0, note=50, velocity=45, time=0.28711037988281246), Message('note_off', channel=0, note=55, velocity=0, time=0.039062636718749995), Message('note_off', channel=0, note=50, velocity=0, time=0.287761423828125), Message('note_on', channel=0, note=48, velocity=50, time=0.0045573076171875), Message('note_on', channel=0, note=55, velocity=50, time=0.35156373046875), Message('note_off', channel=0, note=48, velocity=0, time=0.039062636718749995), Message('note_on', channel=0, note=58, velocity=50, time=0.29036559960937497), Message('note_off', channel=0, note=55, velocity=0, time=0.039062636718749995), Message('note_on', channel=0, note=65, velocity=50, time=0.2923187314453125), Message('note_off', channel=0, note=58, velocity=0, time=0.039062636718749995), Message('note_on', channel=0, note=58, velocity=50, time=0.2910166435546875), Message('note_off', channel=0, note=65, velocity=0, time=0.039062636718749995), Message('note_on', channel=0, note=55, velocity=45, time=0.28711037988281246), Message('note_off', channel=0, note=58, velocity=0, time=0.039062636718749995), Message('note_off', channel=0, note=55, velocity=0, time=0.287761423828125), Message('note_on', channel=0, note=41, velocity=50, time=0.0045573076171875), Message('note_on', channel=0, note=53, velocity=50, time=0.35156373046875), Message('note_off', channel=0, note=41, velocity=0, time=0.039062636718749995), Message('note_on', channel=0, note=60, velocity=50, time=0.29036559960937497), Message('note_off', channel=0, note=53, velocity=0, time=0.039062636718749995), Message('note_on', channel=0, note=63, velocity=50, time=0.2923187314453125), Message('note_off', channel=0, note=60, velocity=0, time=0.039062636718749995), Message('note_on', channel=0, note=65, velocity=65, time=0.2910166435546875), Message('note_on', channel=0, note=60, velocity=50, time=0), Message('note_off', channel=0, note=63, velocity=0, time=0.039062636718749995), Message('note_on', channel=0, note=57, velocity=45, time=0.28711037988281246), Message('note_off', channel=0, note=60, velocity=0, time=0.039062636718749995), Message('note_off', channel=0, note=57, velocity=0, time=0.287761423828125), Message('note_off', channel=0, note=65, velocity=0, time=0.001302087890625), MetaMessage('end_of_track', time=0.0006510439453125)]\n",
      "MetaMessage('smpte_offset', frame_rate=30, hours=0, minutes=0, seconds=0, frames=0, sub_frames=0, time=0)\n",
      "MetaMessage('time_signature', numerator=3, denominator=4, clocks_per_click=24, notated_32nd_notes_per_beat=8, time=0)\n",
      "MetaMessage('key_signature', key='Bb', time=0)\n"
     ]
    },
    {
     "data": {
      "text/plain": [
       "<Figure size 1000x1000 with 0 Axes>"
      ]
     },
     "metadata": {},
     "output_type": "display_data"
    }
   ],
   "source": [
    "#To help us import from outside folder\n",
    "import os\n",
    "import sys\n",
    "sys.path.append(os.path.abspath(os.path.join('..')))\n",
    "import matplotlib.pyplot as plt\n",
    "import pandas as pd\n",
    "from generatorReadMidi import GeneratorReadMidi\n",
    "import os\n",
    "import sys\n",
    "import pandas as pd\n",
    "from generatorReadMidi import GeneratorReadMidi\n",
    "\n",
    "current_dir = os.getcwd()\n",
    "\n",
    "plt.figure(figsize=(10, 10))\n",
    "\n",
    "# Set the number of sequences to plot\n",
    "num_sequences_to_plot = 1\n",
    "\n",
    "midi_file_path = \"../data/midi/test.mid\"\n",
    "\n",
    "# Create an instance of the GeneratorReadMidi class\n",
    "generator = GeneratorReadMidi()\n",
    "\n",
    "# Read the MIDI file normally\n",
    "data = generator.readMidi(midi_file_path)\n",
    "print(data)\n",
    "\n",
    "# Read the MIDI file using the generator \n",
    "data = generator.readMidiGenerator(midi_file_path)\n",
    "\n",
    "for d in data:\n",
    "    print(d)\n",
    "\n",
    "\n"
   ]
  }
 ],
 "metadata": {
  "kernelspec": {
   "display_name": ".venv",
   "language": "python",
   "name": "python3"
  },
  "language_info": {
   "codemirror_mode": {
    "name": "ipython",
    "version": 3
   },
   "file_extension": ".py",
   "mimetype": "text/x-python",
   "name": "python",
   "nbconvert_exporter": "python",
   "pygments_lexer": "ipython3",
   "version": "3.12.2"
  }
 },
 "nbformat": 4,
 "nbformat_minor": 2
}
